<?xml version="1.0" encoding="us-ascii" standalone="no"?><svg xmlns="http://www.w3.org/2000/svg" xmlns:xlink="http://www.w3.org/1999/xlink" contentStyleType="text/css" height="1006px" preserveAspectRatio="none" style="width:1683px;height:1006px;background:#FFFFFF;" version="1.1" viewBox="0 0 1683 1006" width="1683px" zoomAndPan="magnify"><defs/><g><!--cluster Articular-ES <<An Entity-Component-System Framework>>--><g id="cluster_Articular-ES &lt;&lt;An Entity-Component-System Framework&gt;&gt;"><polygon fill="none" points="16,16,26,6,1666,6,1666,979.5,1656,989.5,16,989.5,16,16" style="stroke:#181818;stroke-width:1.0;"/><line style="stroke:#181818;stroke-width:1.0;" x1="1656" x2="1666" y1="16" y2="6"/><line style="stroke:#181818;stroke-width:1.0;" x1="16" x2="1656" y1="16" y2="16"/><line style="stroke:#181818;stroke-width:1.0;" x1="1656" x2="1656" y1="16" y2="989.5"/><text fill="#000000" font-family="sans-serif" font-size="14" font-weight="bold" lengthAdjust="spacing" textLength="450" x="612" y="31.9951">Articular-ES &#171;An Entity-Component-System Framework&#187;</text></g><!--cluster com.articular.core--><g id="cluster_com.articular.core"><path d="M42.5,217 L188.5,217 A3.75,3.75 0 0 1 191,219.5 L198,239.2969 L1639.5,239.2969 A2.5,2.5 0 0 1 1642,241.7969 L1642,963 A2.5,2.5 0 0 1 1639.5,965.5 L42.5,965.5 A2.5,2.5 0 0 1 40,963 L40,219.5 A2.5,2.5 0 0 1 42.5,217 " fill="none" style="stroke:#000000;stroke-width:1.5;"/><line style="stroke:#000000;stroke-width:1.5;" x1="40" x2="198" y1="239.2969" y2="239.2969"/><text fill="#000000" font-family="sans-serif" font-size="14" font-weight="bold" lengthAdjust="spacing" textLength="145" x="44" y="231.9951">com.articular.core</text></g><!--cluster Module--><g id="cluster_Module"><polygon fill="#8AE234" points="797,801,807,791,1175,791,1175,915,1165,925,797,925,797,801" style="stroke:#181818;stroke-width:1.0;"/><line style="stroke:#181818;stroke-width:1.0;" x1="1165" x2="1175" y1="801" y2="791"/><line style="stroke:#181818;stroke-width:1.0;" x1="797" x2="1165" y1="801" y2="801"/><line style="stroke:#181818;stroke-width:1.0;" x1="1165" x2="1165" y1="801" y2="925"/><text fill="#000000" font-family="sans-serif" font-size="14" font-style="italic" lengthAdjust="spacing" textLength="82" x="941" y="816.9951">&#171;interface&#187;</text><text fill="#000000" font-family="sans-serif" font-size="14" font-weight="bold" lengthAdjust="spacing" textLength="59" x="952.5" y="833.292">Module</text></g><!--cluster SystemControllers--><g id="cluster_SystemControllers"><polygon fill="#FCAF3E" points="1165,278,1175,268,1610,268,1610,534,1600,544,1165,544,1165,278" style="stroke:#181818;stroke-width:1.0;"/><line style="stroke:#181818;stroke-width:1.0;" x1="1600" x2="1610" y1="278" y2="268"/><line style="stroke:#181818;stroke-width:1.0;" x1="1165" x2="1600" y1="278" y2="278"/><line style="stroke:#181818;stroke-width:1.0;" x1="1600" x2="1600" y1="278" y2="544"/><text fill="#000000" font-family="sans-serif" font-size="14" font-weight="bold" lengthAdjust="spacing" textLength="148" x="1309.5" y="293.9951">SystemControllers</text></g><!--cluster Dependencies--><g id="cluster_Dependencies"><polygon fill="#BABDB6" points="1215,619,1225,609,1610,609,1610,923.5,1600,933.5,1215,933.5,1215,619" style="stroke:#181818;stroke-width:1.0;"/><line style="stroke:#181818;stroke-width:1.0;" x1="1600" x2="1610" y1="619" y2="609"/><line style="stroke:#181818;stroke-width:1.0;" x1="1215" x2="1600" y1="619" y2="619"/><line style="stroke:#181818;stroke-width:1.0;" x1="1600" x2="1600" y1="619" y2="933.5"/><text fill="#000000" font-family="sans-serif" font-size="14" font-weight="bold" lengthAdjust="spacing" textLength="113" x="1352" y="634.9951">Dependencies</text></g><!--cluster MemoryMaps--><g id="cluster_MemoryMaps"><polygon fill="#AD7FA8" points="72,619,82,609,757,609,757,923.5,747,933.5,72,933.5,72,619" style="stroke:#181818;stroke-width:1.0;"/><line style="stroke:#181818;stroke-width:1.0;" x1="747" x2="757" y1="619" y2="609"/><line style="stroke:#181818;stroke-width:1.0;" x1="72" x2="747" y1="619" y2="619"/><line style="stroke:#181818;stroke-width:1.0;" x1="747" x2="747" y1="619" y2="933.5"/><text fill="#000000" font-family="sans-serif" font-size="14" font-weight="bold" lengthAdjust="spacing" textLength="106" x="357.5" y="634.9951">MemoryMaps</text></g><!--cluster com.articular.util--><g id="cluster_com.articular.util"><path d="M817.5,54 L955.5,54 A3.75,3.75 0 0 1 958,56.5 L965,76.2969 L1306.5,76.2969 A2.5,2.5 0 0 1 1309,78.7969 L1309,165.5 A2.5,2.5 0 0 1 1306.5,168 L817.5,168 A2.5,2.5 0 0 1 815,165.5 L815,56.5 A2.5,2.5 0 0 1 817.5,54 " fill="none" style="stroke:#000000;stroke-width:1.5;"/><line style="stroke:#000000;stroke-width:1.5;" x1="815" x2="965" y1="76.2969" y2="76.2969"/><text fill="#000000" font-family="sans-serif" font-size="14" font-weight="bold" lengthAdjust="spacing" textLength="137" x="819" y="68.9951">com.articular.util</text></g><!--entity MemoryMap--><g id="elem_MemoryMap"><rect fill="#AD7FA8" height="62.5938" rx="2.5" ry="2.5" style="stroke:#181818;stroke-width:0.5;" width="128" x="777" y="457"/><rect fill="#AD7FA8" height="10" style="stroke:#181818;stroke-width:0.5;" width="15" x="885" y="462"/><rect fill="#AD7FA8" height="2" style="stroke:#181818;stroke-width:0.5;" width="4" x="883" y="464"/><rect fill="#AD7FA8" height="2" style="stroke:#181818;stroke-width:0.5;" width="4" x="883" y="468"/><text fill="#000000" font-family="sans-serif" font-size="14" font-style="italic" lengthAdjust="spacing" textLength="82" x="795" y="489.9951">&#171;interface&#187;</text><text fill="#000000" font-family="sans-serif" font-size="14" lengthAdjust="spacing" textLength="88" x="792" y="506.292">MemoryMap</text></g><!--entity SystemController--><g id="elem_SystemController"><rect fill="#FCAF3E" height="62.5938" rx="2.5" ry="2.5" style="stroke:#181818;stroke-width:0.5;" width="163" x="977.5" y="457"/><rect fill="#FCAF3E" height="10" style="stroke:#181818;stroke-width:0.5;" width="15" x="1120.5" y="462"/><rect fill="#FCAF3E" height="2" style="stroke:#181818;stroke-width:0.5;" width="4" x="1118.5" y="464"/><rect fill="#FCAF3E" height="2" style="stroke:#181818;stroke-width:0.5;" width="4" x="1118.5" y="468"/><text fill="#000000" font-family="sans-serif" font-size="14" font-style="italic" lengthAdjust="spacing" textLength="82" x="1013" y="489.9951">&#171;interface&#187;</text><text fill="#000000" font-family="sans-serif" font-size="14" lengthAdjust="spacing" textLength="123" x="992.5" y="506.292">SystemController</text></g><!--entity EntityComponentManager--><g id="elem_EntityComponentManager"><rect fill="#729FCF" height="62.5938" rx="2.5" ry="2.5" style="stroke:#181818;stroke-width:0.5;" width="226" x="912" y="316"/><rect fill="#729FCF" height="10" style="stroke:#181818;stroke-width:0.5;" width="15" x="1118" y="321"/><rect fill="#729FCF" height="2" style="stroke:#181818;stroke-width:0.5;" width="4" x="1116" y="323"/><rect fill="#729FCF" height="2" style="stroke:#181818;stroke-width:0.5;" width="4" x="1116" y="327"/><text fill="#000000" font-family="sans-serif" font-size="14" font-style="italic" lengthAdjust="spacing" textLength="83" x="978.5" y="348.9951">&#171;manager&#187;</text><text fill="#000000" font-family="sans-serif" font-size="14" lengthAdjust="spacing" textLength="186" x="927" y="365.292">EntityComponentManager</text></g><!--entity CacheManager--><g id="elem_CacheManager"><rect fill="#729FCF" height="62.5938" rx="2.5" ry="2.5" style="stroke:#181818;stroke-width:0.5;" width="148" x="729" y="316"/><rect fill="#729FCF" height="10" style="stroke:#181818;stroke-width:0.5;" width="15" x="857" y="321"/><rect fill="#729FCF" height="2" style="stroke:#181818;stroke-width:0.5;" width="4" x="855" y="323"/><rect fill="#729FCF" height="2" style="stroke:#181818;stroke-width:0.5;" width="4" x="855" y="327"/><text fill="#000000" font-family="sans-serif" font-size="14" font-style="italic" lengthAdjust="spacing" textLength="83" x="756.5" y="348.9951">&#171;manager&#187;</text><text fill="#000000" font-family="sans-serif" font-size="14" lengthAdjust="spacing" textLength="108" x="744" y="365.292">CacheManager</text></g><!--entity Component-A--><g id="elem_Component-A"><rect fill="#F1F1F1" height="46.2969" rx="2.5" ry="2.5" style="stroke:#181818;stroke-width:0.5;" width="138" x="1013" y="855"/><rect fill="#F1F1F1" height="10" style="stroke:#181818;stroke-width:0.5;" width="15" x="1131" y="860"/><rect fill="#F1F1F1" height="2" style="stroke:#181818;stroke-width:0.5;" width="4" x="1129" y="862"/><rect fill="#F1F1F1" height="2" style="stroke:#181818;stroke-width:0.5;" width="4" x="1129" y="866"/><text fill="#000000" font-family="sans-serif" font-size="14" lengthAdjust="spacing" textLength="98" x="1028" y="887.9951">Component-A</text></g><!--entity Component-B--><g id="elem_Component-B"><rect fill="#F1F1F1" height="46.2969" rx="2.5" ry="2.5" style="stroke:#181818;stroke-width:0.5;" width="138" x="840" y="855"/><rect fill="#F1F1F1" height="10" style="stroke:#181818;stroke-width:0.5;" width="15" x="958" y="860"/><rect fill="#F1F1F1" height="2" style="stroke:#181818;stroke-width:0.5;" width="4" x="956" y="862"/><rect fill="#F1F1F1" height="2" style="stroke:#181818;stroke-width:0.5;" width="4" x="956" y="866"/><text fill="#000000" font-family="sans-serif" font-size="14" lengthAdjust="spacing" textLength="98" x="855" y="887.9951">Component-B</text></g><!--entity SystemsUpdater--><g id="elem_SystemsUpdater"><rect fill="#F1F1F1" height="62.5938" rx="2.5" ry="2.5" style="stroke:#181818;stroke-width:0.5;" width="156" x="1208" y="316"/><rect fill="#F1F1F1" height="10" style="stroke:#181818;stroke-width:0.5;" width="15" x="1344" y="321"/><rect fill="#F1F1F1" height="2" style="stroke:#181818;stroke-width:0.5;" width="4" x="1342" y="323"/><rect fill="#F1F1F1" height="2" style="stroke:#181818;stroke-width:0.5;" width="4" x="1342" y="327"/><text fill="#000000" font-family="sans-serif" font-size="14" font-style="italic" lengthAdjust="spacing" textLength="87" x="1237.5" y="348.9951">&#171;controller&#187;</text><text fill="#000000" font-family="sans-serif" font-size="14" lengthAdjust="spacing" textLength="116" x="1223" y="365.292">SystemsUpdater</text></g><!--entity ComponentsUpdater--><g id="elem_ComponentsUpdater"><rect fill="#F1F1F1" height="62.5938" rx="2.5" ry="2.5" style="stroke:#181818;stroke-width:0.5;" width="187" x="1399.5" y="316"/><rect fill="#F1F1F1" height="10" style="stroke:#181818;stroke-width:0.5;" width="15" x="1566.5" y="321"/><rect fill="#F1F1F1" height="2" style="stroke:#181818;stroke-width:0.5;" width="4" x="1564.5" y="323"/><rect fill="#F1F1F1" height="2" style="stroke:#181818;stroke-width:0.5;" width="4" x="1564.5" y="327"/><text fill="#000000" font-family="sans-serif" font-size="14" font-style="italic" lengthAdjust="spacing" textLength="87" x="1444.5" y="348.9951">&#171;controller&#187;</text><text fill="#000000" font-family="sans-serif" font-size="14" lengthAdjust="spacing" textLength="147" x="1414.5" y="365.292">ComponentsUpdater</text></g><!--entity SystemEntitiesUpdater--><g id="elem_SystemEntitiesUpdater"><rect fill="#F1F1F1" height="62.5938" rx="2.5" ry="2.5" style="stroke:#181818;stroke-width:0.5;" width="201" x="1208.5" y="457"/><rect fill="#F1F1F1" height="10" style="stroke:#181818;stroke-width:0.5;" width="15" x="1389.5" y="462"/><rect fill="#F1F1F1" height="2" style="stroke:#181818;stroke-width:0.5;" width="4" x="1387.5" y="464"/><rect fill="#F1F1F1" height="2" style="stroke:#181818;stroke-width:0.5;" width="4" x="1387.5" y="468"/><text fill="#000000" font-family="sans-serif" font-size="14" font-style="italic" lengthAdjust="spacing" textLength="87" x="1260.5" y="489.9951">&#171;controller&#187;</text><text fill="#000000" font-family="sans-serif" font-size="14" lengthAdjust="spacing" textLength="161" x="1223.5" y="506.292">SystemEntitiesUpdater</text></g><!--entity ArticularSystem--><g id="elem_ArticularSystem"><rect fill="#F1F1F1" height="62.5938" rx="2.5" ry="2.5" style="stroke:#181818;stroke-width:0.5;" width="153" x="1432.5" y="657"/><rect fill="#F1F1F1" height="10" style="stroke:#181818;stroke-width:0.5;" width="15" x="1565.5" y="662"/><rect fill="#F1F1F1" height="2" style="stroke:#181818;stroke-width:0.5;" width="4" x="1563.5" y="664"/><rect fill="#F1F1F1" height="2" style="stroke:#181818;stroke-width:0.5;" width="4" x="1563.5" y="668"/><text fill="#000000" font-family="sans-serif" font-size="14" font-style="italic" lengthAdjust="spacing" textLength="82" x="1463" y="689.9951">&#171;interface&#187;</text><text fill="#000000" font-family="sans-serif" font-size="14" lengthAdjust="spacing" textLength="113" x="1447.5" y="706.292">ArticularSystem</text></g><!--entity Component--><g id="elem_Component"><rect fill="#8AE234" height="62.5938" rx="2.5" ry="2.5" style="stroke:#181818;stroke-width:0.5;" width="139" x="1258.5" y="657"/><rect fill="#8AE234" height="10" style="stroke:#181818;stroke-width:0.5;" width="15" x="1377.5" y="662"/><rect fill="#8AE234" height="2" style="stroke:#181818;stroke-width:0.5;" width="4" x="1375.5" y="664"/><rect fill="#8AE234" height="2" style="stroke:#181818;stroke-width:0.5;" width="4" x="1375.5" y="668"/><text fill="#000000" font-family="sans-serif" font-size="14" font-style="italic" lengthAdjust="spacing" textLength="99" x="1273.5" y="689.9951">&#171;component&#187;</text><text fill="#000000" font-family="sans-serif" font-size="14" lengthAdjust="spacing" textLength="83" x="1281.5" y="706.292">Component</text></g><!--entity Entity--><g id="elem_Entity"><rect fill="#8AE234" height="62.5938" rx="2.5" ry="2.5" style="stroke:#181818;stroke-width:0.5;" width="116" x="1270" y="846.5"/><rect fill="#8AE234" height="10" style="stroke:#181818;stroke-width:0.5;" width="15" x="1366" y="851.5"/><rect fill="#8AE234" height="2" style="stroke:#181818;stroke-width:0.5;" width="4" x="1364" y="853.5"/><rect fill="#8AE234" height="2" style="stroke:#181818;stroke-width:0.5;" width="4" x="1364" y="857.5"/><text fill="#000000" font-family="sans-serif" font-size="14" font-style="italic" lengthAdjust="spacing" textLength="76" x="1285" y="879.4951">&#171;entity/id&#187;</text><text fill="#000000" font-family="sans-serif" font-size="14" lengthAdjust="spacing" textLength="40" x="1303" y="895.792">Entity</text></g><!--entity SystemMap--><g id="elem_SystemMap"><rect fill="#F1F1F1" height="62.5938" rx="2.5" ry="2.5" style="stroke:#181818;stroke-width:0.5;" width="150" x="115" y="657"/><rect fill="#F1F1F1" height="10" style="stroke:#181818;stroke-width:0.5;" width="15" x="245" y="662"/><rect fill="#F1F1F1" height="2" style="stroke:#181818;stroke-width:0.5;" width="4" x="243" y="664"/><rect fill="#F1F1F1" height="2" style="stroke:#181818;stroke-width:0.5;" width="4" x="243" y="668"/><text fill="#000000" font-family="sans-serif" font-size="14" font-style="italic" lengthAdjust="spacing" textLength="110" x="130" y="689.9951">&#171;memorymap&#187;</text><text fill="#000000" font-family="sans-serif" font-size="14" lengthAdjust="spacing" textLength="82" x="144" y="706.292">SystemMap</text></g><!--entity EntityComponentMap--><g id="elem_EntityComponentMap"><rect fill="#F1F1F1" height="62.5938" rx="2.5" ry="2.5" style="stroke:#181818;stroke-width:0.5;" width="193" x="539.5" y="657"/><rect fill="#F1F1F1" height="10" style="stroke:#181818;stroke-width:0.5;" width="15" x="712.5" y="662"/><rect fill="#F1F1F1" height="2" style="stroke:#181818;stroke-width:0.5;" width="4" x="710.5" y="664"/><rect fill="#F1F1F1" height="2" style="stroke:#181818;stroke-width:0.5;" width="4" x="710.5" y="668"/><text fill="#000000" font-family="sans-serif" font-size="14" font-style="italic" lengthAdjust="spacing" textLength="110" x="576" y="689.9951">&#171;memorymap&#187;</text><text fill="#000000" font-family="sans-serif" font-size="14" lengthAdjust="spacing" textLength="153" x="554.5" y="706.292">EntityComponentMap</text></g><!--entity SystemComponentMap--><g id="elem_SystemComponentMap"><rect fill="#F1F1F1" height="62.5938" rx="2.5" ry="2.5" style="stroke:#181818;stroke-width:0.5;" width="205" x="299.5" y="657"/><rect fill="#F1F1F1" height="10" style="stroke:#181818;stroke-width:0.5;" width="15" x="484.5" y="662"/><rect fill="#F1F1F1" height="2" style="stroke:#181818;stroke-width:0.5;" width="4" x="482.5" y="664"/><rect fill="#F1F1F1" height="2" style="stroke:#181818;stroke-width:0.5;" width="4" x="482.5" y="668"/><text fill="#000000" font-family="sans-serif" font-size="14" font-style="italic" lengthAdjust="spacing" textLength="110" x="342" y="689.9951">&#171;memorymap&#187;</text><text fill="#000000" font-family="sans-serif" font-size="14" lengthAdjust="spacing" textLength="165" x="314.5" y="706.292">SystemComponentMap</text></g><!--entity CacheMap--><g id="elem_CacheMap"><rect fill="#F1F1F1" height="62.5938" rx="2.5" ry="2.5" style="stroke:#181818;stroke-width:0.5;" width="150" x="115" y="846.5"/><rect fill="#F1F1F1" height="10" style="stroke:#181818;stroke-width:0.5;" width="15" x="245" y="851.5"/><rect fill="#F1F1F1" height="2" style="stroke:#181818;stroke-width:0.5;" width="4" x="243" y="853.5"/><rect fill="#F1F1F1" height="2" style="stroke:#181818;stroke-width:0.5;" width="4" x="243" y="857.5"/><text fill="#000000" font-family="sans-serif" font-size="14" font-style="italic" lengthAdjust="spacing" textLength="110" x="130" y="879.4951">&#171;memorymap&#187;</text><text fill="#000000" font-family="sans-serif" font-size="14" lengthAdjust="spacing" textLength="75" x="147.5" y="895.792">CacheMap</text></g><!--entity Validator--><g id="elem_Validator"><rect fill="#F1F1F1" height="62.5938" rx="2.5" ry="2.5" style="stroke:#181818;stroke-width:0.5;" width="105" x="1187.5" y="89"/><rect fill="#F1F1F1" height="10" style="stroke:#181818;stroke-width:0.5;" width="15" x="1272.5" y="94"/><rect fill="#F1F1F1" height="2" style="stroke:#181818;stroke-width:0.5;" width="4" x="1270.5" y="96"/><rect fill="#F1F1F1" height="2" style="stroke:#181818;stroke-width:0.5;" width="4" x="1270.5" y="100"/><text fill="#000000" font-family="sans-serif" font-size="14" font-style="italic" lengthAdjust="spacing" textLength="57" x="1206.5" y="121.9951">&#171;utility&#187;</text><text fill="#000000" font-family="sans-serif" font-size="14" lengthAdjust="spacing" textLength="65" x="1202.5" y="138.292">Validator</text></g><!--entity Validatable--><g id="elem_Validatable"><rect fill="#F1F1F1" height="62.5938" rx="2.5" ry="2.5" style="stroke:#181818;stroke-width:0.5;" width="122" x="1030" y="89"/><rect fill="#F1F1F1" height="10" style="stroke:#181818;stroke-width:0.5;" width="15" x="1132" y="94"/><rect fill="#F1F1F1" height="2" style="stroke:#181818;stroke-width:0.5;" width="4" x="1130" y="96"/><rect fill="#F1F1F1" height="2" style="stroke:#181818;stroke-width:0.5;" width="4" x="1130" y="100"/><text fill="#000000" font-family="sans-serif" font-size="14" font-style="italic" lengthAdjust="spacing" textLength="82" x="1045" y="121.9951">&#171;interface&#187;</text><text fill="#000000" font-family="sans-serif" font-size="14" lengthAdjust="spacing" textLength="81" x="1045.5" y="138.292">Validatable</text></g><!--entity ArticularManager--><g id="elem_ArticularManager"><rect fill="#729FCF" height="62.5938" rx="2.5" ry="2.5" style="stroke:#181818;stroke-width:0.5;" width="164" x="831" y="89"/><rect fill="#729FCF" height="10" style="stroke:#181818;stroke-width:0.5;" width="15" x="975" y="94"/><rect fill="#729FCF" height="2" style="stroke:#181818;stroke-width:0.5;" width="4" x="973" y="96"/><rect fill="#729FCF" height="2" style="stroke:#181818;stroke-width:0.5;" width="4" x="973" y="100"/><text fill="#000000" font-family="sans-serif" font-size="14" font-style="italic" lengthAdjust="spacing" textLength="83" x="866.5" y="121.9951">&#171;manager&#187;</text><text fill="#000000" font-family="sans-serif" font-size="14" lengthAdjust="spacing" textLength="124" x="846" y="138.292">ArticularManager</text></g><!--link EntityComponentManager to MemoryMap--><g id="link_EntityComponentManager_MemoryMap"><path d="M984.62,379 C954.05,402.1 920.209,427.6621 889.579,450.8021 " fill="none" id="EntityComponentManager-to-MemoryMap" style="stroke:#181818;stroke-width:1.0;"/><ellipse cx="881.6" cy="456.83" fill="#FFFFFF" rx="6" ry="6" style="stroke:#181818;stroke-width:1.5;"/><path d="M891.5044,458.2096 A10,10 0 0 0 882.9796 446.9256" fill="#FFFFFF" style="stroke:#181818;stroke-width:1.5;"/><text fill="#000000" font-family="sans-serif" font-size="13" lengthAdjust="spacing" textLength="53" x="945" y="422.5669">requires</text></g><!--link CacheManager to MemoryMap--><g id="link_CacheManager_MemoryMap"><path d="M811.34,379 C817.63,402.02 823.5932,423.8239 829.9132,446.9439 " fill="none" id="CacheManager-to-MemoryMap" style="stroke:#181818;stroke-width:1.0;"/><ellipse cx="832.55" cy="456.59" fill="#FFFFFF" rx="6" ry="6" style="stroke:#181818;stroke-width:1.5;"/><path d="M837.5063,447.9047 A10,10 0 0 0 823.8647 451.6337" fill="#FFFFFF" style="stroke:#181818;stroke-width:1.5;"/><text fill="#000000" font-family="sans-serif" font-size="13" lengthAdjust="spacing" textLength="53" x="825" y="422.5669">requires</text></g><!--link EntityComponentManager to SystemController--><g id="link_EntityComponentManager_SystemController"><path d="M1032.46,379 C1038.09,402.02 1043.4021,423.7568 1049.0621,446.8768 " fill="none" id="EntityComponentManager-to-SystemController" style="stroke:#181818;stroke-width:1.0;"/><ellipse cx="1051.44" cy="456.59" fill="#FFFFFF" rx="6" ry="6" style="stroke:#181818;stroke-width:1.5;"/><path d="M1056.6268,448.0403 A10,10 0 0 0 1042.8903 451.4032" fill="#FFFFFF" style="stroke:#181818;stroke-width:1.5;"/><text fill="#000000" font-family="sans-serif" font-size="14" font-weight="bold" lengthAdjust="spacing" textLength="79" x="1045" y="422.9951">delegates</text></g><!--link SystemControllers to SystemController--><g id="link_SystemControllers_SystemController"><path d="M1164.8216,388.1428 C1164.7608,388.2629 1164.6998,388.3829 1164.6387,388.5028 C1164.5163,388.7426 1164.3932,388.9821 1164.2694,389.2213 C1164.0216,389.6997 1163.7709,390.1769 1163.5171,390.6529 C1161.487,394.4606 1159.2659,398.1896 1156.8881,401.8336 C1152.1325,409.1216 1146.75,416.0694 1141.015,422.6263 C1129.545,435.74 1130.7751,436.1139 1118.6801,445.6939 " fill="none" id="SystemControllers-to-SystemController" style="stroke:#181818;stroke-width:1.0;"/><polygon fill="none" points="1104.57,456.87,1122.4055,450.3973,1114.9547,440.9905,1104.57,456.87" style="stroke:#181818;stroke-width:1.0;"/></g><!--link MemoryMap to Dependencies--><g id="link_MemoryMap_Dependencies"><path d="M890.55,520.11 C911.72,532.86 936.84,547.55 960,560 C1016.32,590.265 1080.9125,621.625 1131.99,645.67 C1157.5288,657.6925 1179.6888,667.8863 1195.7466,675.2 C1203.7755,678.8569 1204.8067,679.3329 1209.4441,681.4184 " fill="none" id="MemoryMap-to-Dependencies" style="stroke:#181818;stroke-width:1.0;stroke-dasharray:7.0,7.0;"/><polygon fill="#181818" points="1214.9162,683.8792,1208.3486,676.5398,1210.3561,681.8285,1205.0674,683.836,1214.9162,683.8792" style="stroke:#181818;stroke-width:1.0;"/></g><!--link SystemController to ArticularSystem--><g id="link_SystemController_ArticularSystem"><path d="M1107.12,520.13 C1131.64,534.39 1162.45,550.3 1192,560 C1287.19,591.25 1325.56,547.85 1415,593 C1444.33,607.81 1462.5899,625.8607 1479.6699,647.3807 " fill="none" id="SystemController-to-ArticularSystem" style="stroke:#181818;stroke-width:1.0;"/><ellipse cx="1483.4" cy="652.0803" fill="#FFFFFF" rx="6" ry="6" style="stroke:#181818;stroke-width:1.5;"/><text fill="#000000" font-family="sans-serif" font-size="13" lengthAdjust="spacing" textLength="56" x="1395" y="581.0669">provides</text></g><!--reverse link Component to Entity--><g id="link_Component_Entity"><path d="M1328,738.04 C1328,772.91 1328,811.61 1328,846.47 " fill="none" id="Component-backto-Entity" style="stroke:#181818;stroke-width:1.0;"/><polygon fill="none" points="1328,720.04,1322,738.04,1334,738.04,1328,720.04" style="stroke:#181818;stroke-width:1.0;"/></g><!--reverse link Component to Module--><g id="link_Component_Module"><path d="M1240.911,724.119 C1147.631,749.069 894.2,708.71 824,775 C819.875,778.8963 816.4775,783.378 813.6909,788.2421 C813.3426,788.8501 813.0038,789.4641 812.6744,790.0837 C812.592,790.2386 812.5102,790.3938 812.429,790.5494 " fill="none" id="Component-backto-Module" style="stroke:#181818;stroke-width:1.0;"/><polygon fill="none" points="1258.2,719.11,1239.2413,718.356,1242.5806,729.882,1258.2,719.11" style="stroke:#181818;stroke-width:1.0;"/></g><!--reverse link MemoryMap to MemoryMaps--><g id="link_MemoryMap_MemoryMaps"><path d="M758.8303,489.3968 C597.0003,490.2668 196.22,501.42 99,593 C95.1625,596.6138 91.9817,600.7689 89.3541,605.2775 C88.6972,606.4047 88.0749,607.5539 87.4856,608.7223 " fill="none" id="MemoryMap-backto-MemoryMaps" style="stroke:#181818;stroke-width:1.0;"/><polygon fill="none" points="776.83,489.3,758.798,483.3969,758.8625,495.3967,776.83,489.3" style="stroke:#181818;stroke-width:1.0;"/></g><!--reverse link EntityComponentMap to Module--><g id="link_EntityComponentMap_Module"><path d="M690.2981,723.4626 C711.6081,738.2626 730.83,753.97 749,775 C765.64,794.26 779.465,819.27 789.215,839.7038 C791.6525,844.8122 793.8353,849.6346 795.7437,854.0097 C795.9823,854.5566 796.2166,855.0964 796.4465,855.629 C796.5615,855.8953 796.6754,856.1598 796.7882,856.4224 C796.8446,856.5537 796.9007,856.6845 796.9566,856.8149 " fill="none" id="EntityComponentMap-backto-Module" style="stroke:#181818;stroke-width:1.0;"/><polygon fill="#181818" points="685.37,720.04,690.4804,728.4593,689.4767,722.8922,695.0438,721.8885,685.37,720.04" style="stroke:#181818;stroke-width:1.0;"/><text fill="#000000" font-family="sans-serif" font-size="13" lengthAdjust="spacing" textLength="69" x="742" y="763.0669">associates</text></g><!--link ArticularManager to EntityComponentManager--><g id="link_ArticularManager_EntityComponentManager"><path d="M938,152.27 C945.3,162.07 952.95,173.18 959,184 C983.46,227.71 997.9502,265.2966 1009.3202,298.7666 " fill="none" id="ArticularManager-to-EntityComponentManager" style="stroke:#181818;stroke-width:1.0;"/><polygon fill="none" points="1015.11,315.81,1015.0014,296.8366,1003.6391,300.6965,1015.11,315.81" style="stroke:#181818;stroke-width:1.0;"/><text fill="#000000" font-family="sans-serif" font-size="13" lengthAdjust="spacing" textLength="52" x="968" y="197.0669">extends</text></g><!--link ArticularManager to CacheManager--><g id="link_ArticularManager_CacheManager"><path d="M889.3545,162.532 C883.6745,172.602 883.37,173.47 878,184 C854.93,229.26 833.1444,277.4972 818.6744,310.4172 " fill="none" id="ArticularManager-CacheManager" style="stroke:#181818;stroke-width:1.0;"/><polygon fill="#181818" points="895.25,152.08,888.8183,155.3408,889.3545,162.532,895.7863,159.2711,895.25,152.08" style="stroke:#181818;stroke-width:1.0;"/><polygon fill="#181818" points="816.26,315.91,823.5434,309.2804,818.272,311.3327,816.2197,306.0612,816.26,315.91" style="stroke:#181818;stroke-width:1.0;"/><text fill="#000000" font-family="sans-serif" font-size="13" lengthAdjust="spacing" textLength="75" x="879" y="197.0669">composites</text></g><!--SRC=[ZLHDRvmm4BtpAonwQ5N9kr5IDGdAMcBPvRQdgBb4EJWmtLW1cnhJPDNiVw-nWRNuM8A4nCURDs-UP-RhYr956IoNHKQvgl9iaOXygUz2SE0Afupk9SqzZuiKa1zAnP8gen9lxz7TNSZHbYkc3ZZg8kuFfO8SnJeAteHy9SH7_poahu8chtIlMJJzWhPCEg44_noWKYpplQFddIDeSZpk81VoiAF5azR7k0BvcoP02FeIRgxZyCQYhCX8S2L5be4SWECeZA-s5cnBx2hSKQv5c93SFjO1rvUtSHJRW8WcBp0Fc-B5-Di5wkf00PBmfs8IoZ7s6V3P77qNTFHgjKeXWprLci5Gs8FVYRJAjCizcsx2xUNLZyPxgwvhXF1fxElQVZswv7qTfTyUWCjiKUMl8jNYZAz95q78IAvvgAKq7Z6OX7VuCQ4OVv2HVXeMkO42U0eyqPbqVUjmlLd_TElhPikIzLfof3uhj7avdSO9QG-_Xe5vMhBKWPrmpimi5gGdjU-MEpGONupe3b0XnL-MjXqqKFs1SIVk3CBst8YLdTxQI3lMhf7k2gY9NBpNBwVP5Bc1vBHmdHuCppIqzUOJq6P-1u2Pl8uZsc5QbY9XPagjFTFhqQpFTZq-q8pfBXUco-i_Eb4Zhlr7d-iKm-Ox7VJyQXj2xPnChQC0mRlIFLTEXN_7cFHNNu1CzvUiTk7e_GS0]--></g></svg>
