<?xml version="1.0" encoding="us-ascii" standalone="no"?><svg xmlns="http://www.w3.org/2000/svg" xmlns:xlink="http://www.w3.org/1999/xlink" contentStyleType="text/css" height="753px" preserveAspectRatio="none" style="width:1460px;height:753px;background:#FFFFFF;" version="1.1" viewBox="0 0 1460 753" width="1460px" zoomAndPan="magnify">            <rect width="100%" height="100%" fill="white" /> 
<defs/><g><!--cluster Articular-ES <<An Entity-Component-System Framework>>--><g id="cluster_Articular-ES &lt;&lt;An Entity-Component-System Framework&gt;&gt;"><polygon fill="none" points="16,16,26,6,1443,6,1443,726,1433,736,16,736,16,16" style="stroke:#181818;stroke-width:1.0;"/><line style="stroke:#181818;stroke-width:1.0;" x1="1433" x2="1443" y1="16" y2="6"/><line style="stroke:#181818;stroke-width:1.0;" x1="16" x2="1433" y1="16" y2="16"/><line style="stroke:#181818;stroke-width:1.0;" x1="1433" x2="1433" y1="16" y2="736"/><text fill="#000000" font-family="sans-serif" font-size="14" font-weight="bold" lengthAdjust="spacing" textLength="450" x="500.5" y="31.9951">Articular-ES &#171;An Entity-Component-System Framework&#187;</text></g><!--cluster com.articular.core--><g id="cluster_com.articular.core"><path d="M42.5,217 L188.5,217 A3.75,3.75 0 0 1 191,219.5 L198,239.2969 L1416.5,239.2969 A2.5,2.5 0 0 1 1419,241.7969 L1419,709.5 A2.5,2.5 0 0 1 1416.5,712 L42.5,712 A2.5,2.5 0 0 1 40,709.5 L40,219.5 A2.5,2.5 0 0 1 42.5,217 " fill="none" style="stroke:#000000;stroke-width:1.5;"/><line style="stroke:#000000;stroke-width:1.5;" x1="40" x2="198" y1="239.2969" y2="239.2969"/><text fill="#000000" font-family="sans-serif" font-size="14" font-weight="bold" lengthAdjust="spacing" textLength="145" x="44" y="231.9951">com.articular.core</text></g><!--cluster SystemControllers--><g id="cluster_SystemControllers"><polygon fill="#FCAF3E" points="64,270,74,260,711,260,711,369,701,379,64,379,64,270" style="stroke:#181818;stroke-width:1.0;"/><line style="stroke:#181818;stroke-width:1.0;" x1="701" x2="711" y1="270" y2="260"/><line style="stroke:#181818;stroke-width:1.0;" x1="64" x2="701" y1="270" y2="270"/><line style="stroke:#181818;stroke-width:1.0;" x1="701" x2="701" y1="270" y2="379"/><text fill="#000000" font-family="sans-serif" font-size="14" font-weight="bold" lengthAdjust="spacing" textLength="148" x="309.5" y="285.9951">SystemControllers</text></g><!--cluster Dependencies--><g id="cluster_Dependencies"><polygon fill="#BABDB6" points="64,579,74,569,535,569,535,678,525,688,64,688,64,579" style="stroke:#181818;stroke-width:1.0;"/><line style="stroke:#181818;stroke-width:1.0;" x1="525" x2="535" y1="579" y2="569"/><line style="stroke:#181818;stroke-width:1.0;" x1="64" x2="525" y1="579" y2="579"/><line style="stroke:#181818;stroke-width:1.0;" x1="525" x2="525" y1="579" y2="688"/><text fill="#000000" font-family="sans-serif" font-size="14" font-weight="bold" lengthAdjust="spacing" textLength="113" x="239" y="594.9951">Dependencies</text></g><!--cluster MemoryMaps--><g id="cluster_MemoryMaps"><polygon fill="#AD7FA8" points="559,579,569,569,1395,569,1395,678,1385,688,559,688,559,579" style="stroke:#181818;stroke-width:1.0;"/><line style="stroke:#181818;stroke-width:1.0;" x1="1385" x2="1395" y1="579" y2="569"/><line style="stroke:#181818;stroke-width:1.0;" x1="559" x2="1385" y1="579" y2="579"/><line style="stroke:#181818;stroke-width:1.0;" x1="1385" x2="1385" y1="579" y2="688"/><text fill="#000000" font-family="sans-serif" font-size="14" font-weight="bold" lengthAdjust="spacing" textLength="106" x="920" y="594.9951">MemoryMaps</text></g><!--cluster com.articular.util--><g id="cluster_com.articular.util"><path d="M826.5,54 L964.5,54 A3.75,3.75 0 0 1 967,56.5 L974,76.2969 L1315.5,76.2969 A2.5,2.5 0 0 1 1318,78.7969 L1318,165.5 A2.5,2.5 0 0 1 1315.5,168 L826.5,168 A2.5,2.5 0 0 1 824,165.5 L824,56.5 A2.5,2.5 0 0 1 826.5,54 " fill="none" style="stroke:#000000;stroke-width:1.5;"/><line style="stroke:#000000;stroke-width:1.5;" x1="824" x2="974" y1="76.2969" y2="76.2969"/><text fill="#000000" font-family="sans-serif" font-size="14" font-weight="bold" lengthAdjust="spacing" textLength="137" x="828" y="68.9951">com.articular.util</text></g><!--entity MemoryMap--><g id="elem_MemoryMap"><rect fill="#AD7FA8" height="62.5938" rx="2.5" ry="2.5" style="stroke:#181818;stroke-width:0.5;" width="128" x="779" y="443"/><rect fill="#AD7FA8" height="10" style="stroke:#181818;stroke-width:0.5;" width="15" x="887" y="448"/><rect fill="#AD7FA8" height="2" style="stroke:#181818;stroke-width:0.5;" width="4" x="885" y="450"/><rect fill="#AD7FA8" height="2" style="stroke:#181818;stroke-width:0.5;" width="4" x="885" y="454"/><text fill="#000000" font-family="sans-serif" font-size="14" font-style="italic" lengthAdjust="spacing" textLength="82" x="797" y="475.9951">&#171;interface&#187;</text><text fill="#000000" font-family="sans-serif" font-size="14" lengthAdjust="spacing" textLength="88" x="794" y="492.292">MemoryMap</text></g><!--entity SystemController--><g id="elem_SystemController"><rect fill="#FCAF3E" height="62.5938" rx="2.5" ry="2.5" style="stroke:#181818;stroke-width:0.5;" width="163" x="283.5" y="443"/><rect fill="#FCAF3E" height="10" style="stroke:#181818;stroke-width:0.5;" width="15" x="426.5" y="448"/><rect fill="#FCAF3E" height="2" style="stroke:#181818;stroke-width:0.5;" width="4" x="424.5" y="450"/><rect fill="#FCAF3E" height="2" style="stroke:#181818;stroke-width:0.5;" width="4" x="424.5" y="454"/><text fill="#000000" font-family="sans-serif" font-size="14" font-style="italic" lengthAdjust="spacing" textLength="82" x="319" y="475.9951">&#171;interface&#187;</text><text fill="#000000" font-family="sans-serif" font-size="14" lengthAdjust="spacing" textLength="123" x="298.5" y="492.292">SystemController</text></g><!--entity EntityComponentManager--><g id="elem_EntityComponentManager"><rect fill="#729FCF" height="62.5938" rx="2.5" ry="2.5" style="stroke:#181818;stroke-width:0.5;" width="226" x="730" y="300"/><rect fill="#729FCF" height="10" style="stroke:#181818;stroke-width:0.5;" width="15" x="936" y="305"/><rect fill="#729FCF" height="2" style="stroke:#181818;stroke-width:0.5;" width="4" x="934" y="307"/><rect fill="#729FCF" height="2" style="stroke:#181818;stroke-width:0.5;" width="4" x="934" y="311"/><text fill="#000000" font-family="sans-serif" font-size="14" font-style="italic" lengthAdjust="spacing" textLength="83" x="796.5" y="332.9951">&#171;manager&#187;</text><text fill="#000000" font-family="sans-serif" font-size="14" lengthAdjust="spacing" textLength="186" x="745" y="349.292">EntityComponentManager</text></g><!--entity CacheManager--><g id="elem_CacheManager"><rect fill="#729FCF" height="62.5938" rx="2.5" ry="2.5" style="stroke:#181818;stroke-width:0.5;" width="148" x="991" y="300"/><rect fill="#729FCF" height="10" style="stroke:#181818;stroke-width:0.5;" width="15" x="1119" y="305"/><rect fill="#729FCF" height="2" style="stroke:#181818;stroke-width:0.5;" width="4" x="1117" y="307"/><rect fill="#729FCF" height="2" style="stroke:#181818;stroke-width:0.5;" width="4" x="1117" y="311"/><text fill="#000000" font-family="sans-serif" font-size="14" font-style="italic" lengthAdjust="spacing" textLength="83" x="1018.5" y="332.9951">&#171;manager&#187;</text><text fill="#000000" font-family="sans-serif" font-size="14" lengthAdjust="spacing" textLength="108" x="1006" y="349.292">CacheManager</text></g><!--entity SystemsUpdater--><g id="elem_SystemsUpdater"><rect fill="#F1F1F1" height="62.5938" rx="2.5" ry="2.5" style="stroke:#181818;stroke-width:0.5;" width="156" x="80" y="300"/><rect fill="#F1F1F1" height="10" style="stroke:#181818;stroke-width:0.5;" width="15" x="216" y="305"/><rect fill="#F1F1F1" height="2" style="stroke:#181818;stroke-width:0.5;" width="4" x="214" y="307"/><rect fill="#F1F1F1" height="2" style="stroke:#181818;stroke-width:0.5;" width="4" x="214" y="311"/><text fill="#000000" font-family="sans-serif" font-size="14" font-style="italic" lengthAdjust="spacing" textLength="87" x="109.5" y="332.9951">&#171;controller&#187;</text><text fill="#000000" font-family="sans-serif" font-size="14" lengthAdjust="spacing" textLength="116" x="95" y="349.292">SystemsUpdater</text></g><!--entity ComponentsUpdater--><g id="elem_ComponentsUpdater"><rect fill="#F1F1F1" height="62.5938" rx="2.5" ry="2.5" style="stroke:#181818;stroke-width:0.5;" width="187" x="271.5" y="300"/><rect fill="#F1F1F1" height="10" style="stroke:#181818;stroke-width:0.5;" width="15" x="438.5" y="305"/><rect fill="#F1F1F1" height="2" style="stroke:#181818;stroke-width:0.5;" width="4" x="436.5" y="307"/><rect fill="#F1F1F1" height="2" style="stroke:#181818;stroke-width:0.5;" width="4" x="436.5" y="311"/><text fill="#000000" font-family="sans-serif" font-size="14" font-style="italic" lengthAdjust="spacing" textLength="87" x="316.5" y="332.9951">&#171;controller&#187;</text><text fill="#000000" font-family="sans-serif" font-size="14" lengthAdjust="spacing" textLength="147" x="286.5" y="349.292">ComponentsUpdater</text></g><!--entity SystemEntitiesUpdater--><g id="elem_SystemEntitiesUpdater"><rect fill="#F1F1F1" height="62.5938" rx="2.5" ry="2.5" style="stroke:#181818;stroke-width:0.5;" width="201" x="493.5" y="300"/><rect fill="#F1F1F1" height="10" style="stroke:#181818;stroke-width:0.5;" width="15" x="674.5" y="305"/><rect fill="#F1F1F1" height="2" style="stroke:#181818;stroke-width:0.5;" width="4" x="672.5" y="307"/><rect fill="#F1F1F1" height="2" style="stroke:#181818;stroke-width:0.5;" width="4" x="672.5" y="311"/><text fill="#000000" font-family="sans-serif" font-size="14" font-style="italic" lengthAdjust="spacing" textLength="87" x="545.5" y="332.9951">&#171;controller&#187;</text><text fill="#000000" font-family="sans-serif" font-size="14" lengthAdjust="spacing" textLength="161" x="508.5" y="349.292">SystemEntitiesUpdater</text></g><g id="elem_System"><ellipse cx="136.8752" cy="640.3908" fill="#F1F1F1" rx="56.3752" ry="25.8908" style="stroke:#181818;stroke-width:0.5;"/><text fill="#000000" font-family="sans-serif" font-size="14" font-style="italic" lengthAdjust="spacing" textLength="76" x="98.8752" y="637.1128">&#171;string-id&#187;</text><text fill="#000000" font-family="sans-serif" font-size="14" lengthAdjust="spacing" textLength="52" x="110.8752" y="653.4097">System</text></g><!--entity Component--><g id="elem_Component"><rect fill="#F1F1F1" height="62.5938" rx="2.5" ry="2.5" style="stroke:#181818;stroke-width:0.5;" width="139" x="228.5" y="609"/><rect fill="#F1F1F1" height="10" style="stroke:#181818;stroke-width:0.5;" width="15" x="347.5" y="614"/><rect fill="#F1F1F1" height="2" style="stroke:#181818;stroke-width:0.5;" width="4" x="345.5" y="616"/><rect fill="#F1F1F1" height="2" style="stroke:#181818;stroke-width:0.5;" width="4" x="345.5" y="620"/><text fill="#000000" font-family="sans-serif" font-size="14" font-style="italic" lengthAdjust="spacing" textLength="99" x="243.5" y="641.9951">&#171;component&#187;</text><text fill="#000000" font-family="sans-serif" font-size="14" lengthAdjust="spacing" textLength="83" x="251.5" y="658.292">Component</text></g><!--entity Entity--><g id="elem_Entity"><rect fill="#F1F1F1" height="62.5938" rx="2.5" ry="2.5" style="stroke:#181818;stroke-width:0.5;" width="116" x="403" y="609"/><rect fill="#F1F1F1" height="10" style="stroke:#181818;stroke-width:0.5;" width="15" x="499" y="614"/><rect fill="#F1F1F1" height="2" style="stroke:#181818;stroke-width:0.5;" width="4" x="497" y="616"/><rect fill="#F1F1F1" height="2" style="stroke:#181818;stroke-width:0.5;" width="4" x="497" y="620"/><text fill="#000000" font-family="sans-serif" font-size="14" font-style="italic" lengthAdjust="spacing" textLength="76" x="418" y="641.9951">&#171;entity/id&#187;</text><text fill="#000000" font-family="sans-serif" font-size="14" lengthAdjust="spacing" textLength="40" x="436" y="658.292">Entity</text></g><!--entity SystemMap--><g id="elem_SystemMap"><rect fill="#F1F1F1" height="62.5938" rx="2.5" ry="2.5" style="stroke:#181818;stroke-width:0.5;" width="150" x="575" y="609"/><rect fill="#F1F1F1" height="10" style="stroke:#181818;stroke-width:0.5;" width="15" x="705" y="614"/><rect fill="#F1F1F1" height="2" style="stroke:#181818;stroke-width:0.5;" width="4" x="703" y="616"/><rect fill="#F1F1F1" height="2" style="stroke:#181818;stroke-width:0.5;" width="4" x="703" y="620"/><text fill="#000000" font-family="sans-serif" font-size="14" font-style="italic" lengthAdjust="spacing" textLength="110" x="590" y="641.9951">&#171;memorymap&#187;</text><text fill="#000000" font-family="sans-serif" font-size="14" lengthAdjust="spacing" textLength="82" x="604" y="658.292">SystemMap</text></g><!--entity EntityComponentMap--><g id="elem_EntityComponentMap"><rect fill="#F1F1F1" height="62.5938" rx="2.5" ry="2.5" style="stroke:#181818;stroke-width:0.5;" width="193" x="760.5" y="609"/><rect fill="#F1F1F1" height="10" style="stroke:#181818;stroke-width:0.5;" width="15" x="933.5" y="614"/><rect fill="#F1F1F1" height="2" style="stroke:#181818;stroke-width:0.5;" width="4" x="931.5" y="616"/><rect fill="#F1F1F1" height="2" style="stroke:#181818;stroke-width:0.5;" width="4" x="931.5" y="620"/><text fill="#000000" font-family="sans-serif" font-size="14" font-style="italic" lengthAdjust="spacing" textLength="110" x="797" y="641.9951">&#171;memorymap&#187;</text><text fill="#000000" font-family="sans-serif" font-size="14" lengthAdjust="spacing" textLength="153" x="775.5" y="658.292">EntityComponentMap</text></g><!--entity SystemComponentMap--><g id="elem_SystemComponentMap"><rect fill="#F1F1F1" height="62.5938" rx="2.5" ry="2.5" style="stroke:#181818;stroke-width:0.5;" width="205" x="988.5" y="609"/><rect fill="#F1F1F1" height="10" style="stroke:#181818;stroke-width:0.5;" width="15" x="1173.5" y="614"/><rect fill="#F1F1F1" height="2" style="stroke:#181818;stroke-width:0.5;" width="4" x="1171.5" y="616"/><rect fill="#F1F1F1" height="2" style="stroke:#181818;stroke-width:0.5;" width="4" x="1171.5" y="620"/><text fill="#000000" font-family="sans-serif" font-size="14" font-style="italic" lengthAdjust="spacing" textLength="110" x="1031" y="641.9951">&#171;memorymap&#187;</text><text fill="#000000" font-family="sans-serif" font-size="14" lengthAdjust="spacing" textLength="165" x="1003.5" y="658.292">SystemComponentMap</text></g><!--entity CacheMap--><g id="elem_CacheMap"><rect fill="#F1F1F1" height="62.5938" rx="2.5" ry="2.5" style="stroke:#181818;stroke-width:0.5;" width="150" x="1229" y="609"/><rect fill="#F1F1F1" height="10" style="stroke:#181818;stroke-width:0.5;" width="15" x="1359" y="614"/><rect fill="#F1F1F1" height="2" style="stroke:#181818;stroke-width:0.5;" width="4" x="1357" y="616"/><rect fill="#F1F1F1" height="2" style="stroke:#181818;stroke-width:0.5;" width="4" x="1357" y="620"/><text fill="#000000" font-family="sans-serif" font-size="14" font-style="italic" lengthAdjust="spacing" textLength="110" x="1244" y="641.9951">&#171;memorymap&#187;</text><text fill="#000000" font-family="sans-serif" font-size="14" lengthAdjust="spacing" textLength="75" x="1261.5" y="658.292">CacheMap</text></g><!--entity Validator--><g id="elem_Validator"><rect fill="#F1F1F1" height="62.5938" rx="2.5" ry="2.5" style="stroke:#181818;stroke-width:0.5;" width="105" x="1196.5" y="89"/><rect fill="#F1F1F1" height="10" style="stroke:#181818;stroke-width:0.5;" width="15" x="1281.5" y="94"/><rect fill="#F1F1F1" height="2" style="stroke:#181818;stroke-width:0.5;" width="4" x="1279.5" y="96"/><rect fill="#F1F1F1" height="2" style="stroke:#181818;stroke-width:0.5;" width="4" x="1279.5" y="100"/><text fill="#000000" font-family="sans-serif" font-size="14" font-style="italic" lengthAdjust="spacing" textLength="57" x="1215.5" y="121.9951">&#171;utility&#187;</text><text fill="#000000" font-family="sans-serif" font-size="14" lengthAdjust="spacing" textLength="65" x="1211.5" y="138.292">Validator</text></g><!--entity Validatable--><g id="elem_Validatable"><rect fill="#F1F1F1" height="62.5938" rx="2.5" ry="2.5" style="stroke:#181818;stroke-width:0.5;" width="122" x="1039" y="89"/><rect fill="#F1F1F1" height="10" style="stroke:#181818;stroke-width:0.5;" width="15" x="1141" y="94"/><rect fill="#F1F1F1" height="2" style="stroke:#181818;stroke-width:0.5;" width="4" x="1139" y="96"/><rect fill="#F1F1F1" height="2" style="stroke:#181818;stroke-width:0.5;" width="4" x="1139" y="100"/><text fill="#000000" font-family="sans-serif" font-size="14" font-style="italic" lengthAdjust="spacing" textLength="82" x="1054" y="121.9951">&#171;interface&#187;</text><text fill="#000000" font-family="sans-serif" font-size="14" lengthAdjust="spacing" textLength="81" x="1054.5" y="138.292">Validatable</text></g><!--entity ArticularManager--><g id="elem_ArticularManager"><rect fill="#729FCF" height="62.5938" rx="2.5" ry="2.5" style="stroke:#181818;stroke-width:0.5;" width="164" x="840" y="89"/><rect fill="#729FCF" height="10" style="stroke:#181818;stroke-width:0.5;" width="15" x="984" y="94"/><rect fill="#729FCF" height="2" style="stroke:#181818;stroke-width:0.5;" width="4" x="982" y="96"/><rect fill="#729FCF" height="2" style="stroke:#181818;stroke-width:0.5;" width="4" x="982" y="100"/><text fill="#000000" font-family="sans-serif" font-size="14" font-style="italic" lengthAdjust="spacing" textLength="83" x="875.5" y="121.9951">&#171;manager&#187;</text><text fill="#000000" font-family="sans-serif" font-size="14" lengthAdjust="spacing" textLength="124" x="855" y="138.292">ArticularManager</text></g><!--link EntityComponentManager to MemoryMap--><g id="link_EntityComponentManager_MemoryMap"><path d="M843,363.09 C843,386.75 843,409.33 843,432.96 " fill="none" id="EntityComponentManager-to-MemoryMap" style="stroke:#181818;stroke-width:1.0;"/><ellipse cx="843" cy="442.96" fill="#FFFFFF" rx="6" ry="6" style="stroke:#181818;stroke-width:1.5;"/><path d="M850.0711,435.8889 A10,10 0 0 0 835.9289 435.8889" fill="#FFFFFF" style="stroke:#181818;stroke-width:1.5;"/><text fill="#000000" font-family="sans-serif" font-size="13" lengthAdjust="spacing" textLength="53" x="844" y="408.5669">requires</text></g><!--link CacheManager to MemoryMap--><g id="link_CacheManager_MemoryMap"><path d="M1016.83,363.09 C979.59,386.75 936.7317,413.9692 899.5217,437.5992 " fill="none" id="CacheManager-to-MemoryMap" style="stroke:#181818;stroke-width:1.0;"/><ellipse cx="891.08" cy="442.96" fill="#FFFFFF" rx="6" ry="6" style="stroke:#181818;stroke-width:1.5;"/><path d="M900.8398,445.1385 A10,10 0 0 0 893.2585 433.2002" fill="#FFFFFF" style="stroke:#181818;stroke-width:1.5;"/><text fill="#000000" font-family="sans-serif" font-size="13" lengthAdjust="spacing" textLength="53" x="961" y="408.5669">requires</text></g><!--link EntityComponentManager to SystemController--><g id="link_EntityComponentManager_SystemController"><path d="M774.53,363 C754.3,371.4 731.96,380.1 711,387 C622.05,416.31 527.1999,439.047 456.4799,454.487 " fill="none" id="EntityComponentManager-to-SystemController" style="stroke:#181818;stroke-width:1.0;"/><ellipse cx="446.71" cy="456.62" fill="#FFFFFF" rx="6" ry="6" style="stroke:#181818;stroke-width:1.5;"/><path d="M455.1266,462.0201 A10,10 0 0 0 452.1101 448.2034" fill="#FFFFFF" style="stroke:#181818;stroke-width:1.5;"/><text fill="#000000" font-family="sans-serif" font-size="14" font-weight="bold" lengthAdjust="spacing" textLength="79" x="684" y="408.9951">delegates</text></g><!--link SystemsUpdater to SystemController--><g id="link_SystemsUpdater_SystemController"><path d="M202.92,363.09 C237.64,386.75 270.5921,409.1985 305.2921,432.8285 " fill="none" id="SystemsUpdater-to-SystemController" style="stroke:#181818;stroke-width:1.0;"/><polygon fill="none" points="320.17,442.96,308.6693,427.8692,301.9149,437.7878,320.17,442.96" style="stroke:#181818;stroke-width:1.0;"/></g><!--link ComponentsUpdater to SystemController--><g id="link_ComponentsUpdater_SystemController"><path d="M365,363.09 C365,386.75 365,401.33 365,424.96 " fill="none" id="ComponentsUpdater-to-SystemController" style="stroke:#181818;stroke-width:1.0;"/><polygon fill="none" points="365,442.96,371,424.96,359,424.96,365,442.96" style="stroke:#181818;stroke-width:1.0;"/></g><!--link SystemEntitiesUpdater to SystemController--><g id="link_SystemEntitiesUpdater_SystemController"><path d="M544.31,363.09 C505.9,386.75 468.3089,409.8947 429.9189,433.5247 " fill="none" id="SystemEntitiesUpdater-to-SystemController" style="stroke:#181818;stroke-width:1.0;"/><polygon fill="none" points="414.59,442.96,433.064,438.6343,426.7738,428.4151,414.59,442.96" style="stroke:#181818;stroke-width:1.0;"/></g><!--link MemoryMap to Component--><g id="link_MemoryMap_Component"><path d="M778.65,476.78 C686.96,480.92 515.5,497.38 386,561 C362.48,572.56 344.6419,587.8581 328.5219,604.5981 " fill="none" id="MemoryMap-to-Component" style="stroke:#181818;stroke-width:1.0;stroke-dasharray:7.0,7.0;"/><polygon fill="#181818" points="324.36,608.92,333.4841,605.2117,327.8282,605.3184,327.7215,599.6626,324.36,608.92" style="stroke:#181818;stroke-width:1.0;"/></g><!--link MemoryMap to Entity--><g id="link_MemoryMap_Entity"><path d="M778.83,487.46 C719.43,500.21 629.88,523.75 559,561 C534.88,573.68 515.4369,588.7066 497.2569,604.8466 " fill="none" id="MemoryMap-to-Entity" style="stroke:#181818;stroke-width:1.0;stroke-dasharray:7.0,7.0;"/><polygon fill="#181818" points="492.77,608.83,502.156,605.8461,496.5091,605.5105,496.8447,599.8636,492.77,608.83" style="stroke:#181818;stroke-width:1.0;"/></g><!--link MemoryMap to System--><g id="link_MemoryMap_System"><path d="M778.64,483.16 C692.28,493.7 534.23,513.89 400,536 C360.7,542.48 351.47,547.64 312,553 C289.69,556.03 231.3,551.27 211,561 C186.17,572.9 168.9494,592.139 155.8094,610.519 " fill="none" id="MemoryMap-to-System" style="stroke:#181818;stroke-width:1.0;stroke-dasharray:7.0,7.0;"/><polygon fill="#181818" points="152.32,615.4,160.8081,610.4048,155.2279,611.3325,154.3002,605.7523,152.32,615.4" style="stroke:#181818;stroke-width:1.0;"/></g><!--link SystemController to System--><g id="link_SystemController_System"><path d="M299.68,506.07 C271.19,520.81 238.16,539.88 211,561 C190.3,577.09 177.8598,589.8981 163.8098,606.5081 " fill="none" id="SystemController-to-System" style="stroke:#181818;stroke-width:1.0;"/><ellipse cx="159.9349" cy="611.0891" fill="#FFFFFF" rx="6" ry="6" style="stroke:#181818;stroke-width:1.5;"/><text fill="#000000" font-family="sans-serif" font-size="13" lengthAdjust="spacing" textLength="56" x="247" y="549.0669">provides</text></g><!--reverse link MemoryMap to SystemMap--><g id="link_MemoryMap_SystemMap"><path d="M792.9824,518.0046 C758.4724,547.3246 720.59,579.52 686.14,608.79 " fill="none" id="MemoryMap-backto-SystemMap" style="stroke:#181818;stroke-width:1.0;"/><polygon fill="none" points="806.7,506.35,789.0976,513.432,796.8673,522.5771,806.7,506.35" style="stroke:#181818;stroke-width:1.0;"/></g><!--reverse link MemoryMap to EntityComponentMap--><g id="link_MemoryMap_EntityComponentMap"><path d="M847.1653,524.2844 C849.6753,553.6044 851.88,579.52 854.38,608.79 " fill="none" id="MemoryMap-backto-EntityComponentMap" style="stroke:#181818;stroke-width:1.0;"/><polygon fill="none" points="845.63,506.35,841.1872,524.7962,853.1434,523.7726,845.63,506.35" style="stroke:#181818;stroke-width:1.0;"/></g><!--reverse link MemoryMap to SystemComponentMap--><g id="link_MemoryMap_SystemComponentMap"><path d="M904.3737,516.0792 C948.8137,545.4692 1000.51,579.66 1044.87,609 " fill="none" id="MemoryMap-backto-SystemComponentMap" style="stroke:#181818;stroke-width:1.0;"/><polygon fill="none" points="889.36,506.15,901.064,521.0837,907.6834,511.0746,889.36,506.15" style="stroke:#181818;stroke-width:1.0;"/></g><!--reverse link MemoryMap to CacheMap--><g id="link_MemoryMap_CacheMap"><path d="M925.161,483.266 C1001.151,492.046 1111.91,511.33 1211,561 C1234.99,573.02 1258.06,592.44 1275.23,608.95 " fill="none" id="MemoryMap-backto-CacheMap" style="stroke:#181818;stroke-width:1.0;"/><polygon fill="none" points="907.28,481.2,924.4724,489.2263,925.8497,477.3057,907.28,481.2" style="stroke:#181818;stroke-width:1.0;"/></g><!--link ArticularManager to EntityComponentManager--><g id="link_ArticularManager_EntityComponentManager"><path d="M910.34,152.34 C895.36,191.97 875.8836,243.5124 860.9436,283.0424 " fill="none" id="ArticularManager-to-EntityComponentManager" style="stroke:#181818;stroke-width:1.0;"/><polygon fill="none" points="854.58,299.88,866.5561,285.1636,855.3311,280.9212,854.58,299.88" style="stroke:#181818;stroke-width:1.0;"/><text fill="#000000" font-family="sans-serif" font-size="13" lengthAdjust="spacing" textLength="52" x="897" y="197.0669">extends</text></g><!--link ArticularManager to CacheManager--><g id="link_ArticularManager_CacheManager"><path d="M949.8753,162.2443 C976.9853,201.8743 1013.6116,255.3983 1040.6616,294.9283 " fill="none" id="ArticularManager-CacheManager" style="stroke:#181818;stroke-width:1.0;"/><polygon fill="#181818" points="943.1,152.34,943.1862,159.5506,949.8753,162.2443,949.7891,155.0337,943.1,152.34" style="stroke:#181818;stroke-width:1.0;"/><polygon fill="#181818" points="1044.05,299.88,1042.2685,290.1936,1041.2264,295.7536,1035.6663,294.7114,1044.05,299.88" style="stroke:#181818;stroke-width:1.0;"/><text fill="#000000" font-family="sans-serif" font-size="13" lengthAdjust="spacing" textLength="75" x="973" y="197.0669">composites</text></g><!--SRC=[ZLNHRfim57tdAopwiAwIasgJrWubI8I4jpnLsylK1mzkKwl6PiRP5gtvznaR20KCHK8YyZd7vnxxtdnuLgeeW-MoO8IhOyuMgSYN-Yq41wvmHib1ajppkCW0-P5KD3qo8l7k0QrM4KSxhgWwuRXbF9nA1JbAD0l-2FaIXZxwvo7z52Hz8GUjekKNf57I6qhmfm17HPdldJrlIg3UuySUSY5FUr8yQd-KAv1F98KmH5VHzYw9xYtAcem5Lr8m1d80Jk8e-RopO5jYM-6US6t2K7BxMH7kFdrDuiGIOf8-mppCfOlnzIrgwq01al3hI2MKO-epuCaz-Ybezdgzpe31WIYjO2JimVUXfTzaL0VVYRNyLcIQRqfFMqOONd2jdtcebJHbK732tHOmVWr7pdlIoop7OMgAT-wckOK2U0OyrMmTv2RQR3TVEa5UMusFkinIISeFc6QZ-TaWwXzTX3ttQXdCrz88NDOxRR9OX5r5DwRMT08Qr_sSkcs6yUsbkW0LKlocMNrPtqJKQbS1sTOTthIwpNE3pKanJA1pyztGnkOxe7Np3G2ZeQnUCUvQdG2Dk9sLV2-wzLodx9waPj8sa_GxOLHVR66whLhH1kiecZNoaq5lTDhrzdzYVWeEeRQDN9ChGF1NwUufNVGRZCF-b0oGwPAILcFjxFq7]--></g></svg>
