<?xml version="1.0" encoding="us-ascii" standalone="no"?><svg xmlns="http://www.w3.org/2000/svg" xmlns:xlink="http://www.w3.org/1999/xlink" contentStyleType="text/css" height="1080px" preserveAspectRatio="none" style="width:1928px;height:1080px;background:#FFFFFF;" version="1.1" viewBox="0 0 1928 1080" width="1928px" zoomAndPan="magnify"><defs/><g><!--cluster Articular-ES <<An Entity-Component-System Framework>>--><g id="cluster_Articular-ES &lt;&lt;An Entity-Component-System Framework&gt;&gt;"><polygon fill="none" points="16,16,26,6,1911,6,1911,1053.5,1901,1063.5,16,1063.5,16,16" style="stroke:#181818;stroke-width:1.0;"/><line style="stroke:#181818;stroke-width:1.0;" x1="1901" x2="1911" y1="16" y2="6"/><line style="stroke:#181818;stroke-width:1.0;" x1="16" x2="1901" y1="16" y2="16"/><line style="stroke:#181818;stroke-width:1.0;" x1="1901" x2="1901" y1="16" y2="1063.5"/><text fill="#000000" font-family="sans-serif" font-size="14" font-weight="bold" lengthAdjust="spacing" textLength="450" x="734.5" y="31.9951">Articular-ES &#171;An Entity-Component-System Framework&#187;</text></g><!--cluster com.articular.core--><g id="cluster_com.articular.core"><path d="M42.5,217 L188.5,217 A3.75,3.75 0 0 1 191,219.5 L198,239.2969 L1884.5,239.2969 A2.5,2.5 0 0 1 1887,241.7969 L1887,1037 A2.5,2.5 0 0 1 1884.5,1039.5 L42.5,1039.5 A2.5,2.5 0 0 1 40,1037 L40,219.5 A2.5,2.5 0 0 1 42.5,217 " fill="none" style="stroke:#000000;stroke-width:1.5;"/><line style="stroke:#000000;stroke-width:1.5;" x1="40" x2="198" y1="239.2969" y2="239.2969"/><text fill="#000000" font-family="sans-serif" font-size="14" font-weight="bold" lengthAdjust="spacing" textLength="145" x="44" y="231.9951">com.articular.core</text></g><!--cluster Module--><g id="cluster_Module"><polygon fill="#8AE234" points="797,875,807,865,1175,865,1175,989,1165,999,797,999,797,875" style="stroke:#181818;stroke-width:1.0;"/><line style="stroke:#181818;stroke-width:1.0;" x1="1165" x2="1175" y1="875" y2="865"/><line style="stroke:#181818;stroke-width:1.0;" x1="797" x2="1165" y1="875" y2="875"/><line style="stroke:#181818;stroke-width:1.0;" x1="1165" x2="1165" y1="875" y2="999"/><text fill="#000000" font-family="sans-serif" font-size="14" font-style="italic" lengthAdjust="spacing" textLength="82" x="941" y="890.9951">&#171;interface&#187;</text><text fill="#000000" font-family="sans-serif" font-size="14" font-weight="bold" lengthAdjust="spacing" textLength="59" x="952.5" y="907.292">Module</text></g><!--cluster SystemControllers--><g id="cluster_SystemControllers"><polygon fill="#FCAF3E" points="1410,278,1420,268,1855,268,1855,534,1845,544,1410,544,1410,278" style="stroke:#181818;stroke-width:1.0;"/><line style="stroke:#181818;stroke-width:1.0;" x1="1845" x2="1855" y1="278" y2="268"/><line style="stroke:#181818;stroke-width:1.0;" x1="1410" x2="1845" y1="278" y2="278"/><line style="stroke:#181818;stroke-width:1.0;" x1="1845" x2="1845" y1="278" y2="544"/><text fill="#000000" font-family="sans-serif" font-size="14" font-weight="bold" lengthAdjust="spacing" textLength="148" x="1554.5" y="293.9951">SystemControllers</text></g><!--cluster Dependencies--><g id="cluster_Dependencies"><polygon fill="#BABDB6" points="1215,619,1225,609,1855,609,1855,997.5,1845,1007.5,1215,1007.5,1215,619" style="stroke:#181818;stroke-width:1.0;"/><line style="stroke:#181818;stroke-width:1.0;" x1="1845" x2="1855" y1="619" y2="609"/><line style="stroke:#181818;stroke-width:1.0;" x1="1215" x2="1845" y1="619" y2="619"/><line style="stroke:#181818;stroke-width:1.0;" x1="1845" x2="1845" y1="619" y2="1007.5"/><text fill="#000000" font-family="sans-serif" font-size="14" font-weight="bold" lengthAdjust="spacing" textLength="113" x="1474.5" y="634.9951">Dependencies</text></g><!--cluster DataPipe--><g id="cluster_DataPipe"><path d="M1621.928,674.5989 C1625.8964,666.5208 1632.2667,666.6227 1637.7491,672.9344 C1642.5739,665.4617 1648.1128,665.9807 1652.4436,673.4211 C1655.7173,666.6999 1662.6528,663.9207 1667.5305,671.7592 C1673.8684,665.5018 1678.9184,666.0247 1684.0831,673.2044 C1688.2124,666.516 1692.5588,664.4525 1698.7287,670.9355 C1704.2484,661.8004 1709.919,662.9579 1716.1971,670.1228 C1721.7134,664.3183 1728.3962,664.7677 1732.1773,672.2153 C1736.4207,665.3397 1742.9216,665.2855 1746.3604,672.9975 C1751.6384,665.3391 1757.9403,664.8738 1763.0213,673.2028 C1768.0479,666.8884 1774.3962,666.6732 1778.7915,673.936 C1783.2193,665.4058 1788.93,665.736 1794.3119,672.9984 C1804.9214,665.1624 1810.8347,668.795 1815,680 C1815.3418,679.8886 1815.5408,679.9744 1815.5715,680.3587 C1824.9925,683.2234 1824.2573,690.8035 1818.3476,696.3325 C1825.8994,699.8373 1826.7385,704.0757 1821.1916,710.256 C1829.7768,713.1964 1830.6226,719.1676 1823.7192,724.7999 C1831.3653,728.5788 1830.735,733.4695 1825.6286,738.9671 C1830.6926,743.3789 1830.3537,749.3828 1823.963,752.3711 C1829.9982,757.9791 1829.7466,763.5956 1821.3857,766.5951 C1827.2376,771.8111 1825.4385,777.0707 1819.0349,780.1633 C1826.352,792.1951 1819.4453,798.4054 1808,800 C1808.1836,799.8944 1808.3647,799.928 1808.3904,800.1749 C1805.5961,808.3956 1798.2165,809.5467 1792.7673,802.9799 C1789.1029,809.7515 1782.2271,811.1214 1778.0802,803.4713 C1774.4114,811.3534 1766.8068,811.4014 1762.2517,804.4148 C1758.4262,811.6864 1752.5157,813.0914 1746.8258,806.4875 C1743.2231,814.2012 1737.8914,815.5384 1732.3362,808.3911 C1726.9114,816.9604 1721.1092,818.1644 1714.8658,809.2071 C1709.5242,815.7355 1701.7355,814.7106 1699.1574,806.301 C1693.4134,813.3602 1688.4253,813.6897 1683.0108,805.9416 C1679.5255,812.6901 1672.8415,812.3568 1669.5414,805.7548 C1662.7408,811.997 1657.7822,810.6672 1653.4511,802.9155 C1649.3144,810.6477 1641.7227,810.4133 1637.8561,802.6437 C1625.5262,811.0003 1616.4956,807.4136 1613,793 C1614.2657,793.6767 1614.4161,794.5359 1613.3079,795.5045 C1606.0124,790.7371 1605.1228,785.6927 1611.8962,779.671 C1605.7194,775.7555 1605.8525,769.475 1611.6127,765.3236 C1604.4967,762.5304 1603.797,756.9977 1610.0775,752.5894 C1601.8403,749.2566 1600.8651,744.8717 1607.5139,738.7762 C1601.069,734.5628 1602.0571,727.1283 1608.4782,723.7399 C1602.4497,719.2767 1603.037,714.3072 1609.5274,710.8642 C1602.7572,705.1697 1606.2465,698.3201 1613.3372,696.2355 C1604.6524,687.4498 1608.0039,675.8553 1620,673 C1621.3472,672.4611 1622.2185,673.1632 1621.928,674.5989 " fill="#FFFFFF" style="stroke:#181818;stroke-width:1.0;"/><text fill="#000000" font-family="sans-serif" font-size="14" font-style="italic" lengthAdjust="spacing" textLength="82" x="1673" y="690.9951">&#171;interface&#187;</text><text fill="#000000" font-family="sans-serif" font-size="14" font-weight="bold" lengthAdjust="spacing" textLength="72" x="1678" y="707.292">DataPipe</text></g><!--cluster MemoryMaps--><g id="cluster_MemoryMaps"><polygon fill="#AD7FA8" points="72,684.5,82,674.5,757,674.5,757,997.5,747,1007.5,72,1007.5,72,684.5" style="stroke:#181818;stroke-width:1.0;"/><line style="stroke:#181818;stroke-width:1.0;" x1="747" x2="757" y1="684.5" y2="674.5"/><line style="stroke:#181818;stroke-width:1.0;" x1="72" x2="747" y1="684.5" y2="684.5"/><line style="stroke:#181818;stroke-width:1.0;" x1="747" x2="747" y1="684.5" y2="1007.5"/><text fill="#000000" font-family="sans-serif" font-size="14" font-weight="bold" lengthAdjust="spacing" textLength="106" x="357.5" y="700.4951">MemoryMaps</text></g><!--cluster com.articular.util--><g id="cluster_com.articular.util"><path d="M1062.5,54 L1200.5,54 A3.75,3.75 0 0 1 1203,56.5 L1210,76.2969 L1551.5,76.2969 A2.5,2.5 0 0 1 1554,78.7969 L1554,165.5 A2.5,2.5 0 0 1 1551.5,168 L1062.5,168 A2.5,2.5 0 0 1 1060,165.5 L1060,56.5 A2.5,2.5 0 0 1 1062.5,54 " fill="none" style="stroke:#000000;stroke-width:1.5;"/><line style="stroke:#000000;stroke-width:1.5;" x1="1060" x2="1210" y1="76.2969" y2="76.2969"/><text fill="#000000" font-family="sans-serif" font-size="14" font-weight="bold" lengthAdjust="spacing" textLength="137" x="1064" y="68.9951">com.articular.util</text></g><!--entity MemoryMap--><g id="elem_MemoryMap"><rect fill="#AD7FA8" height="62.5938" rx="2.5" ry="2.5" style="stroke:#181818;stroke-width:0.5;" width="128" x="1022" y="457"/><rect fill="#AD7FA8" height="10" style="stroke:#181818;stroke-width:0.5;" width="15" x="1130" y="462"/><rect fill="#AD7FA8" height="2" style="stroke:#181818;stroke-width:0.5;" width="4" x="1128" y="464"/><rect fill="#AD7FA8" height="2" style="stroke:#181818;stroke-width:0.5;" width="4" x="1128" y="468"/><text fill="#000000" font-family="sans-serif" font-size="14" font-style="italic" lengthAdjust="spacing" textLength="82" x="1040" y="489.9951">&#171;interface&#187;</text><text fill="#000000" font-family="sans-serif" font-size="14" lengthAdjust="spacing" textLength="88" x="1037" y="506.292">MemoryMap</text></g><!--entity SystemController--><g id="elem_SystemController"><rect fill="#FCAF3E" height="62.5938" rx="2.5" ry="2.5" style="stroke:#181818;stroke-width:0.5;" width="163" x="1222.5" y="457"/><rect fill="#FCAF3E" height="10" style="stroke:#181818;stroke-width:0.5;" width="15" x="1365.5" y="462"/><rect fill="#FCAF3E" height="2" style="stroke:#181818;stroke-width:0.5;" width="4" x="1363.5" y="464"/><rect fill="#FCAF3E" height="2" style="stroke:#181818;stroke-width:0.5;" width="4" x="1363.5" y="468"/><text fill="#000000" font-family="sans-serif" font-size="14" font-style="italic" lengthAdjust="spacing" textLength="82" x="1258" y="489.9951">&#171;interface&#187;</text><text fill="#000000" font-family="sans-serif" font-size="14" lengthAdjust="spacing" textLength="123" x="1237.5" y="506.292">SystemController</text></g><!--entity EntityComponentManager--><g id="elem_EntityComponentManager"><rect fill="#729FCF" height="62.5938" rx="2.5" ry="2.5" style="stroke:#181818;stroke-width:0.5;" width="226" x="1157" y="316"/><rect fill="#729FCF" height="10" style="stroke:#181818;stroke-width:0.5;" width="15" x="1363" y="321"/><rect fill="#729FCF" height="2" style="stroke:#181818;stroke-width:0.5;" width="4" x="1361" y="323"/><rect fill="#729FCF" height="2" style="stroke:#181818;stroke-width:0.5;" width="4" x="1361" y="327"/><text fill="#000000" font-family="sans-serif" font-size="14" font-style="italic" lengthAdjust="spacing" textLength="83" x="1223.5" y="348.9951">&#171;manager&#187;</text><text fill="#000000" font-family="sans-serif" font-size="14" lengthAdjust="spacing" textLength="186" x="1172" y="365.292">EntityComponentManager</text></g><!--entity CacheManager--><g id="elem_CacheManager"><rect fill="#729FCF" height="62.5938" rx="2.5" ry="2.5" style="stroke:#181818;stroke-width:0.5;" width="148" x="974" y="316"/><rect fill="#729FCF" height="10" style="stroke:#181818;stroke-width:0.5;" width="15" x="1102" y="321"/><rect fill="#729FCF" height="2" style="stroke:#181818;stroke-width:0.5;" width="4" x="1100" y="323"/><rect fill="#729FCF" height="2" style="stroke:#181818;stroke-width:0.5;" width="4" x="1100" y="327"/><text fill="#000000" font-family="sans-serif" font-size="14" font-style="italic" lengthAdjust="spacing" textLength="83" x="1001.5" y="348.9951">&#171;manager&#187;</text><text fill="#000000" font-family="sans-serif" font-size="14" lengthAdjust="spacing" textLength="108" x="989" y="365.292">CacheManager</text></g><!--entity Component-A--><g id="elem_Component-A"><rect fill="#F1F1F1" height="46.2969" rx="2.5" ry="2.5" style="stroke:#181818;stroke-width:0.5;" width="138" x="1013" y="929"/><rect fill="#F1F1F1" height="10" style="stroke:#181818;stroke-width:0.5;" width="15" x="1131" y="934"/><rect fill="#F1F1F1" height="2" style="stroke:#181818;stroke-width:0.5;" width="4" x="1129" y="936"/><rect fill="#F1F1F1" height="2" style="stroke:#181818;stroke-width:0.5;" width="4" x="1129" y="940"/><text fill="#000000" font-family="sans-serif" font-size="14" lengthAdjust="spacing" textLength="98" x="1028" y="961.9951">Component-A</text></g><!--entity Component-B--><g id="elem_Component-B"><rect fill="#F1F1F1" height="46.2969" rx="2.5" ry="2.5" style="stroke:#181818;stroke-width:0.5;" width="138" x="840" y="929"/><rect fill="#F1F1F1" height="10" style="stroke:#181818;stroke-width:0.5;" width="15" x="958" y="934"/><rect fill="#F1F1F1" height="2" style="stroke:#181818;stroke-width:0.5;" width="4" x="956" y="936"/><rect fill="#F1F1F1" height="2" style="stroke:#181818;stroke-width:0.5;" width="4" x="956" y="940"/><text fill="#000000" font-family="sans-serif" font-size="14" lengthAdjust="spacing" textLength="98" x="855" y="961.9951">Component-B</text></g><!--entity SystemsUpdater--><g id="elem_SystemsUpdater"><rect fill="#F1F1F1" height="62.5938" rx="2.5" ry="2.5" style="stroke:#181818;stroke-width:0.5;" width="156" x="1453" y="316"/><rect fill="#F1F1F1" height="10" style="stroke:#181818;stroke-width:0.5;" width="15" x="1589" y="321"/><rect fill="#F1F1F1" height="2" style="stroke:#181818;stroke-width:0.5;" width="4" x="1587" y="323"/><rect fill="#F1F1F1" height="2" style="stroke:#181818;stroke-width:0.5;" width="4" x="1587" y="327"/><text fill="#000000" font-family="sans-serif" font-size="14" font-style="italic" lengthAdjust="spacing" textLength="87" x="1482.5" y="348.9951">&#171;controller&#187;</text><text fill="#000000" font-family="sans-serif" font-size="14" lengthAdjust="spacing" textLength="116" x="1468" y="365.292">SystemsUpdater</text></g><!--entity ComponentsUpdater--><g id="elem_ComponentsUpdater"><rect fill="#F1F1F1" height="62.5938" rx="2.5" ry="2.5" style="stroke:#181818;stroke-width:0.5;" width="187" x="1644.5" y="316"/><rect fill="#F1F1F1" height="10" style="stroke:#181818;stroke-width:0.5;" width="15" x="1811.5" y="321"/><rect fill="#F1F1F1" height="2" style="stroke:#181818;stroke-width:0.5;" width="4" x="1809.5" y="323"/><rect fill="#F1F1F1" height="2" style="stroke:#181818;stroke-width:0.5;" width="4" x="1809.5" y="327"/><text fill="#000000" font-family="sans-serif" font-size="14" font-style="italic" lengthAdjust="spacing" textLength="87" x="1689.5" y="348.9951">&#171;controller&#187;</text><text fill="#000000" font-family="sans-serif" font-size="14" lengthAdjust="spacing" textLength="147" x="1659.5" y="365.292">ComponentsUpdater</text></g><!--entity SystemEntitiesUpdater--><g id="elem_SystemEntitiesUpdater"><rect fill="#F1F1F1" height="62.5938" rx="2.5" ry="2.5" style="stroke:#181818;stroke-width:0.5;" width="201" x="1453.5" y="457"/><rect fill="#F1F1F1" height="10" style="stroke:#181818;stroke-width:0.5;" width="15" x="1634.5" y="462"/><rect fill="#F1F1F1" height="2" style="stroke:#181818;stroke-width:0.5;" width="4" x="1632.5" y="464"/><rect fill="#F1F1F1" height="2" style="stroke:#181818;stroke-width:0.5;" width="4" x="1632.5" y="468"/><text fill="#000000" font-family="sans-serif" font-size="14" font-style="italic" lengthAdjust="spacing" textLength="87" x="1505.5" y="489.9951">&#171;controller&#187;</text><text fill="#000000" font-family="sans-serif" font-size="14" lengthAdjust="spacing" textLength="161" x="1468.5" y="506.292">SystemEntitiesUpdater</text></g><!--entity ArticularSystem--><g id="elem_ArticularSystem"><rect fill="#F1F1F1" height="62.5938" rx="2.5" ry="2.5" style="stroke:#181818;stroke-width:0.5;" width="153" x="1432.5" y="722.5"/><rect fill="#F1F1F1" height="10" style="stroke:#181818;stroke-width:0.5;" width="15" x="1565.5" y="727.5"/><rect fill="#F1F1F1" height="2" style="stroke:#181818;stroke-width:0.5;" width="4" x="1563.5" y="729.5"/><rect fill="#F1F1F1" height="2" style="stroke:#181818;stroke-width:0.5;" width="4" x="1563.5" y="733.5"/><text fill="#000000" font-family="sans-serif" font-size="14" font-style="italic" lengthAdjust="spacing" textLength="82" x="1463" y="755.4951">&#171;interface&#187;</text><text fill="#000000" font-family="sans-serif" font-size="14" lengthAdjust="spacing" textLength="113" x="1447.5" y="771.792">ArticularSystem</text></g><!--entity Component--><g id="elem_Component"><rect fill="#8AE234" height="62.5938" rx="2.5" ry="2.5" style="stroke:#181818;stroke-width:0.5;" width="139" x="1258.5" y="722.5"/><rect fill="#8AE234" height="10" style="stroke:#181818;stroke-width:0.5;" width="15" x="1377.5" y="727.5"/><rect fill="#8AE234" height="2" style="stroke:#181818;stroke-width:0.5;" width="4" x="1375.5" y="729.5"/><rect fill="#8AE234" height="2" style="stroke:#181818;stroke-width:0.5;" width="4" x="1375.5" y="733.5"/><text fill="#000000" font-family="sans-serif" font-size="14" font-style="italic" lengthAdjust="spacing" textLength="99" x="1273.5" y="755.4951">&#171;component&#187;</text><text fill="#000000" font-family="sans-serif" font-size="14" lengthAdjust="spacing" textLength="83" x="1281.5" y="771.792">Component</text></g><!--entity Entity--><g id="elem_Entity"><rect fill="#8AE234" height="62.5938" rx="2.5" ry="2.5" style="stroke:#181818;stroke-width:0.5;" width="116" x="1270" y="920.5"/><rect fill="#8AE234" height="10" style="stroke:#181818;stroke-width:0.5;" width="15" x="1366" y="925.5"/><rect fill="#8AE234" height="2" style="stroke:#181818;stroke-width:0.5;" width="4" x="1364" y="927.5"/><rect fill="#8AE234" height="2" style="stroke:#181818;stroke-width:0.5;" width="4" x="1364" y="931.5"/><text fill="#000000" font-family="sans-serif" font-size="14" font-style="italic" lengthAdjust="spacing" textLength="76" x="1285" y="953.4951">&#171;entity/id&#187;</text><text fill="#000000" font-family="sans-serif" font-size="14" lengthAdjust="spacing" textLength="40" x="1303" y="969.792">Entity</text></g><!--entity Exposed data pipe objects--><g id="elem_Exposed data pipe objects"><ellipse cx="1714" cy="724.5" fill="#F1F1F1" rx="8" ry="8" style="stroke:#181818;stroke-width:0.5;"/><path d="M1714,732.5 L1714,759.5 M1701,740.5 L1727,740.5 M1714,759.5 L1701,774.5 M1714,759.5 L1727,774.5 " fill="none" style="stroke:#181818;stroke-width:0.5;"/><text fill="#000000" font-family="sans-serif" font-size="14" lengthAdjust="spacing" textLength="186" x="1621" y="788.9951">Exposed data pipe objects</text></g><!--entity SystemMap--><g id="elem_SystemMap"><rect fill="#F1F1F1" height="62.5938" rx="2.5" ry="2.5" style="stroke:#181818;stroke-width:0.5;" width="150" x="115" y="722.5"/><rect fill="#F1F1F1" height="10" style="stroke:#181818;stroke-width:0.5;" width="15" x="245" y="727.5"/><rect fill="#F1F1F1" height="2" style="stroke:#181818;stroke-width:0.5;" width="4" x="243" y="729.5"/><rect fill="#F1F1F1" height="2" style="stroke:#181818;stroke-width:0.5;" width="4" x="243" y="733.5"/><text fill="#000000" font-family="sans-serif" font-size="14" font-style="italic" lengthAdjust="spacing" textLength="110" x="130" y="755.4951">&#171;memorymap&#187;</text><text fill="#000000" font-family="sans-serif" font-size="14" lengthAdjust="spacing" textLength="82" x="144" y="771.792">SystemMap</text></g><!--entity EntityComponentMap--><g id="elem_EntityComponentMap"><rect fill="#F1F1F1" height="62.5938" rx="2.5" ry="2.5" style="stroke:#181818;stroke-width:0.5;" width="193" x="539.5" y="722.5"/><rect fill="#F1F1F1" height="10" style="stroke:#181818;stroke-width:0.5;" width="15" x="712.5" y="727.5"/><rect fill="#F1F1F1" height="2" style="stroke:#181818;stroke-width:0.5;" width="4" x="710.5" y="729.5"/><rect fill="#F1F1F1" height="2" style="stroke:#181818;stroke-width:0.5;" width="4" x="710.5" y="733.5"/><text fill="#000000" font-family="sans-serif" font-size="14" font-style="italic" lengthAdjust="spacing" textLength="110" x="576" y="755.4951">&#171;memorymap&#187;</text><text fill="#000000" font-family="sans-serif" font-size="14" lengthAdjust="spacing" textLength="153" x="554.5" y="771.792">EntityComponentMap</text></g><!--entity SystemComponentMap--><g id="elem_SystemComponentMap"><rect fill="#F1F1F1" height="62.5938" rx="2.5" ry="2.5" style="stroke:#181818;stroke-width:0.5;" width="205" x="299.5" y="722.5"/><rect fill="#F1F1F1" height="10" style="stroke:#181818;stroke-width:0.5;" width="15" x="484.5" y="727.5"/><rect fill="#F1F1F1" height="2" style="stroke:#181818;stroke-width:0.5;" width="4" x="482.5" y="729.5"/><rect fill="#F1F1F1" height="2" style="stroke:#181818;stroke-width:0.5;" width="4" x="482.5" y="733.5"/><text fill="#000000" font-family="sans-serif" font-size="14" font-style="italic" lengthAdjust="spacing" textLength="110" x="342" y="755.4951">&#171;memorymap&#187;</text><text fill="#000000" font-family="sans-serif" font-size="14" lengthAdjust="spacing" textLength="165" x="314.5" y="771.792">SystemComponentMap</text></g><!--entity CacheMap--><g id="elem_CacheMap"><rect fill="#F1F1F1" height="62.5938" rx="2.5" ry="2.5" style="stroke:#181818;stroke-width:0.5;" width="150" x="115" y="920.5"/><rect fill="#F1F1F1" height="10" style="stroke:#181818;stroke-width:0.5;" width="15" x="245" y="925.5"/><rect fill="#F1F1F1" height="2" style="stroke:#181818;stroke-width:0.5;" width="4" x="243" y="927.5"/><rect fill="#F1F1F1" height="2" style="stroke:#181818;stroke-width:0.5;" width="4" x="243" y="931.5"/><text fill="#000000" font-family="sans-serif" font-size="14" font-style="italic" lengthAdjust="spacing" textLength="110" x="130" y="953.4951">&#171;memorymap&#187;</text><text fill="#000000" font-family="sans-serif" font-size="14" lengthAdjust="spacing" textLength="75" x="147.5" y="969.792">CacheMap</text></g><!--entity DataPipeMap--><g id="elem_DataPipeMap"><rect fill="#F1F1F1" height="62.5938" rx="2.5" ry="2.5" style="stroke:#181818;stroke-width:0.5;" width="150" x="300" y="920.5"/><rect fill="#F1F1F1" height="10" style="stroke:#181818;stroke-width:0.5;" width="15" x="430" y="925.5"/><rect fill="#F1F1F1" height="2" style="stroke:#181818;stroke-width:0.5;" width="4" x="428" y="927.5"/><rect fill="#F1F1F1" height="2" style="stroke:#181818;stroke-width:0.5;" width="4" x="428" y="931.5"/><text fill="#000000" font-family="sans-serif" font-size="14" font-style="italic" lengthAdjust="spacing" textLength="110" x="315" y="953.4951">&#171;memorymap&#187;</text><text fill="#000000" font-family="sans-serif" font-size="14" lengthAdjust="spacing" textLength="94" x="323" y="969.792">DataPipeMap</text></g><!--entity Validator--><g id="elem_Validator"><rect fill="#F1F1F1" height="62.5938" rx="2.5" ry="2.5" style="stroke:#181818;stroke-width:0.5;" width="105" x="1432.5" y="89"/><rect fill="#F1F1F1" height="10" style="stroke:#181818;stroke-width:0.5;" width="15" x="1517.5" y="94"/><rect fill="#F1F1F1" height="2" style="stroke:#181818;stroke-width:0.5;" width="4" x="1515.5" y="96"/><rect fill="#F1F1F1" height="2" style="stroke:#181818;stroke-width:0.5;" width="4" x="1515.5" y="100"/><text fill="#000000" font-family="sans-serif" font-size="14" font-style="italic" lengthAdjust="spacing" textLength="57" x="1451.5" y="121.9951">&#171;utility&#187;</text><text fill="#000000" font-family="sans-serif" font-size="14" lengthAdjust="spacing" textLength="65" x="1447.5" y="138.292">Validator</text></g><!--entity Validatable--><g id="elem_Validatable"><rect fill="#F1F1F1" height="62.5938" rx="2.5" ry="2.5" style="stroke:#181818;stroke-width:0.5;" width="122" x="1275" y="89"/><rect fill="#F1F1F1" height="10" style="stroke:#181818;stroke-width:0.5;" width="15" x="1377" y="94"/><rect fill="#F1F1F1" height="2" style="stroke:#181818;stroke-width:0.5;" width="4" x="1375" y="96"/><rect fill="#F1F1F1" height="2" style="stroke:#181818;stroke-width:0.5;" width="4" x="1375" y="100"/><text fill="#000000" font-family="sans-serif" font-size="14" font-style="italic" lengthAdjust="spacing" textLength="82" x="1290" y="121.9951">&#171;interface&#187;</text><text fill="#000000" font-family="sans-serif" font-size="14" lengthAdjust="spacing" textLength="81" x="1290.5" y="138.292">Validatable</text></g><!--entity ArticularManager--><g id="elem_ArticularManager"><rect fill="#729FCF" height="62.5938" rx="2.5" ry="2.5" style="stroke:#181818;stroke-width:0.5;" width="164" x="1076" y="89"/><rect fill="#729FCF" height="10" style="stroke:#181818;stroke-width:0.5;" width="15" x="1220" y="94"/><rect fill="#729FCF" height="2" style="stroke:#181818;stroke-width:0.5;" width="4" x="1218" y="96"/><rect fill="#729FCF" height="2" style="stroke:#181818;stroke-width:0.5;" width="4" x="1218" y="100"/><text fill="#000000" font-family="sans-serif" font-size="14" font-style="italic" lengthAdjust="spacing" textLength="83" x="1111.5" y="121.9951">&#171;manager&#187;</text><text fill="#000000" font-family="sans-serif" font-size="14" lengthAdjust="spacing" textLength="124" x="1091" y="138.292">ArticularManager</text></g><!--link EntityComponentManager to MemoryMap--><g id="link_EntityComponentManager_MemoryMap"><path d="M1229.62,379 C1199.05,402.1 1165.209,427.6621 1134.579,450.8021 " fill="none" id="EntityComponentManager-to-MemoryMap" style="stroke:#181818;stroke-width:1.0;"/><ellipse cx="1126.6" cy="456.83" fill="#FFFFFF" rx="6" ry="6" style="stroke:#181818;stroke-width:1.5;"/><path d="M1136.5044,458.2096 A10,10 0 0 0 1127.9796 446.9256" fill="#FFFFFF" style="stroke:#181818;stroke-width:1.5;"/><text fill="#000000" font-family="sans-serif" font-size="13" lengthAdjust="spacing" textLength="53" x="1190" y="422.5669">requires</text></g><!--link CacheManager to MemoryMap--><g id="link_CacheManager_MemoryMap"><path d="M1056.34,379 C1062.63,402.02 1068.5932,423.8239 1074.9132,446.9439 " fill="none" id="CacheManager-to-MemoryMap" style="stroke:#181818;stroke-width:1.0;"/><ellipse cx="1077.55" cy="456.59" fill="#FFFFFF" rx="6" ry="6" style="stroke:#181818;stroke-width:1.5;"/><path d="M1082.5063,447.9047 A10,10 0 0 0 1068.8647 451.6337" fill="#FFFFFF" style="stroke:#181818;stroke-width:1.5;"/><text fill="#000000" font-family="sans-serif" font-size="13" lengthAdjust="spacing" textLength="53" x="1070" y="422.5669">requires</text></g><!--link EntityComponentManager to SystemController--><g id="link_EntityComponentManager_SystemController"><path d="M1277.46,379 C1283.09,402.02 1288.4021,423.7568 1294.0621,446.8768 " fill="none" id="EntityComponentManager-to-SystemController" style="stroke:#181818;stroke-width:1.0;"/><ellipse cx="1296.44" cy="456.59" fill="#FFFFFF" rx="6" ry="6" style="stroke:#181818;stroke-width:1.5;"/><path d="M1301.6268,448.0403 A10,10 0 0 0 1287.8903 451.4032" fill="#FFFFFF" style="stroke:#181818;stroke-width:1.5;"/><text fill="#000000" font-family="sans-serif" font-size="14" font-weight="bold" lengthAdjust="spacing" textLength="79" x="1290" y="422.9951">delegates</text></g><!--link SystemControllers to SystemController--><g id="link_SystemControllers_SystemController"><path d="M1409.8216,388.1428 C1409.7608,388.2629 1409.6998,388.3829 1409.6387,388.5028 C1409.5163,388.7426 1409.3932,388.9821 1409.2694,389.2213 C1409.0216,389.6997 1408.7709,390.1769 1408.5171,390.6529 C1406.487,394.4606 1404.2659,398.1896 1401.8881,401.8336 C1397.1325,409.1216 1391.75,416.0694 1386.015,422.6263 C1374.545,435.74 1375.7751,436.1139 1363.6801,445.6939 " fill="none" id="SystemControllers-to-SystemController" style="stroke:#181818;stroke-width:1.0;"/><polygon fill="none" points="1349.57,456.87,1367.4055,450.3973,1359.9547,440.9905,1349.57,456.87" style="stroke:#181818;stroke-width:1.0;"/></g><!--link MemoryMap to Dependencies--><g id="link_MemoryMap_Dependencies"><path d="M1101.98,520.24 C1119.77,554.45 1149.365,611.37 1174.835,660.3575 C1187.57,684.8513 1199.2738,707.3619 1207.955,724.0591 C1210.1253,728.2334 1212.1067,732.0443 1213.8681,735.4321 C1214.0883,735.8556 1214.305,736.2724 1214.5183,736.6825 C1214.6249,736.8876 1211.9628,731.7675 1212.0677,731.9692 " fill="none" id="MemoryMap-to-Dependencies" style="stroke:#181818;stroke-width:1.0;stroke-dasharray:7.0,7.0;"/><polygon fill="#181818" points="1214.8355,737.2927,1214.2327,727.4623,1212.529,732.8565,1207.1348,731.1527,1214.8355,737.2927" style="stroke:#181818;stroke-width:1.0;"/></g><!--link SystemController to ArticularSystem--><g id="link_SystemController_ArticularSystem"><path d="M1342.11,520.17 C1364.85,539.6 1393.41,566.07 1415,593 C1448.25,634.48 1472.3273,678.215 1489.0573,711.705 " fill="none" id="SystemController-to-ArticularSystem" style="stroke:#181818;stroke-width:1.0;"/><ellipse cx="1491.7386" cy="717.0725" fill="#FFFFFF" rx="6" ry="6" style="stroke:#181818;stroke-width:1.5;"/><text fill="#000000" font-family="sans-serif" font-size="13" lengthAdjust="spacing" textLength="56" x="1408" y="581.0669">provides</text></g><!--reverse link Component to Entity--><g id="link_Component_Entity"><path d="M1328,803.62 C1328,840.34 1328,883.51 1328,920.27 " fill="none" id="Component-backto-Entity" style="stroke:#181818;stroke-width:1.0;"/><polygon fill="none" points="1328,785.62,1322,803.62,1334,803.62,1328,785.62" style="stroke:#181818;stroke-width:1.0;"/></g><!--reverse link Component to Module--><g id="link_Component_Module"><path d="M1286.727,797.7644 C1274.187,809.3844 1271.68,809.22 1255,816 C1166.02,852.19 895.48,784.83 824,849 C819.7775,852.79 816.3064,857.1916 813.4657,861.9968 C813.1107,862.5975 812.7654,863.2044 812.4298,863.8173 C812.262,864.1237 812.0966,864.4316 811.9336,864.741 " fill="none" id="Component-backto-Module" style="stroke:#181818;stroke-width:1.0;"/><polygon fill="none" points="1299.93,785.53,1282.6488,793.3634,1290.8051,802.1654,1299.93,785.53" style="stroke:#181818;stroke-width:1.0;"/></g><!--reverse link MemoryMap to MemoryMaps--><g id="link_MemoryMap_MemoryMaps"><path d="M1003.7921,492.3191 C795.2721,499.9591 164.78,528.12 99,593 C73.905,617.75 68.91,656.8975 70.3088,690.2738 C70.4836,694.4458 70.7583,698.5276 71.1062,702.4799 C71.2802,704.4561 71.4724,706.3998 71.6795,708.3063 C71.7313,708.7829 71.7841,709.2571 71.8377,709.729 C71.8645,709.9649 71.8915,710.2003 71.9187,710.435 " fill="none" id="MemoryMap-backto-MemoryMaps" style="stroke:#181818;stroke-width:1.0;"/><polygon fill="none" points="1021.78,491.66,1003.5724,486.3231,1004.0118,498.315,1021.78,491.66" style="stroke:#181818;stroke-width:1.0;"/></g><!--reverse link EntityComponentMap to Module--><g id="link_EntityComponentMap_Module"><path d="M684.9764,789.1781 C707.3864,806.1181 729.19,824.98 749,849 C765.195,868.64 779.015,893.655 788.8738,913.9962 C791.3384,919.0816 793.5555,923.8748 795.5003,928.2188 C795.9865,929.3049 796.4556,930.3628 796.9074,931.3902 " fill="none" id="EntityComponentMap-backto-Module" style="stroke:#181818;stroke-width:1.0;"/><polygon fill="#181818" points="680.19,785.56,684.9575,794.1781,684.1787,788.5751,689.7816,787.7962,680.19,785.56" style="stroke:#181818;stroke-width:1.0;"/><text fill="#000000" font-family="sans-serif" font-size="13" lengthAdjust="spacing" textLength="69" x="742" y="837.0669">associates</text></g><!--link ArticularManager to EntityComponentManager--><g id="link_ArticularManager_EntityComponentManager"><path d="M1183,152.27 C1190.3,162.07 1197.95,173.18 1204,184 C1228.46,227.71 1242.9502,265.2966 1254.3202,298.7666 " fill="none" id="ArticularManager-to-EntityComponentManager" style="stroke:#181818;stroke-width:1.0;"/><polygon fill="none" points="1260.11,315.81,1260.0014,296.8366,1248.6391,300.6965,1260.11,315.81" style="stroke:#181818;stroke-width:1.0;"/><text fill="#000000" font-family="sans-serif" font-size="13" lengthAdjust="spacing" textLength="52" x="1213" y="197.0669">extends</text></g><!--link ArticularManager to CacheManager--><g id="link_ArticularManager_CacheManager"><path d="M1134.3545,162.532 C1128.6745,172.602 1128.37,173.47 1123,184 C1099.93,229.26 1078.1444,277.4972 1063.6744,310.4172 " fill="none" id="ArticularManager-CacheManager" style="stroke:#181818;stroke-width:1.0;"/><polygon fill="#181818" points="1140.25,152.08,1133.8183,155.3408,1134.3545,162.532,1140.7863,159.2711,1140.25,152.08" style="stroke:#181818;stroke-width:1.0;"/><polygon fill="#181818" points="1061.26,315.91,1068.5434,309.2804,1063.272,311.3327,1061.2197,306.0612,1061.26,315.91" style="stroke:#181818;stroke-width:1.0;"/><text fill="#000000" font-family="sans-serif" font-size="13" lengthAdjust="spacing" textLength="75" x="1124" y="197.0669">composites</text></g><!--SRC=[ZLHTQzim57tthn3PmyP0IMd7seN6u7puBJ0esyl8WshVfLfjIPFbhM7DV- -rP3l27ya20IS-zznpp_ru_sICAkQpcSgOC6MUJHEPp_2hf01XQChPNhCy28HCWKmYRNXIPapJpGEvluy4sGZ3pO6kseY7Gs4W9p56mL-fdyDmGlu513-A9SziZon8FsKD4oRKC3a7A0tF9i4n2CuHr3b-R26N-h1bQeVwk32WVx84mf2yYzQtSNJdK4xaIWgZPPQ1xe7ZLHJVR1pObTXMk6K2HTYGt3rM0RVNN-9Lx09MB7c2ox0nNae_N96s3Z8d6dwNN4Cnn7u1V3P7rmMCNYmMAMImPmOPB8Lh_5QcPOOkTsowYpRNDvzgxvswTX2YtT2_I_VlqIVlwYWcJGDyPeSglgaKnLbVapOY30ToNOOwIkiHXr5uYnyIIkbhE31F_IBNe42a81BCXFKje-Lw-TclhzqjHzOPoO7wdD3wnwaR9wHhVWK3-pJZgGSxuRoTcKx3ZjIkM_xIK7ere7jEb9P_UDfCK4_rAwMjk3C8DtEx4qcIoJ95USomhrprfp6s7yzJsxJDYv85f0IRouZ2E28VVq5YlDAE_NQrdbJDSgV3RvP_PYgnFZxeMbPVezn2SgRyRlOMT1pQ-FyVqFf6Z0CQ3mSm5xHvdS5EiwAG2RVNmbauVgRj6M_Ez7UMSMo8jDjMlS54jRxc7NkiKlINu3Hmbqzi7-hsTUmipWcy69pzOYpy8wLXzmJFYTt2WbSk78Ct]--></g></svg>
